<svg id="Group_10359" data-name="Group 10359" xmlns="http://www.w3.org/2000/svg" xmlns:xlink="http://www.w3.org/1999/xlink" width="434.516" height="385.889" viewBox="0 0 434.516 385.889">
  <defs>
    <clipPath id="clip-path">
      <rect id="Rectangle_1547" data-name="Rectangle 1547" width="434.516" height="385.889" fill="none"/>
    </clipPath>
    <clipPath id="clip-path-2">
      <rect id="Rectangle_1498" data-name="Rectangle 1498" width="434.516" height="385.889" transform="translate(0 -0.001)" fill="none"/>
    </clipPath>
    <clipPath id="clip-path-4">
      <rect id="Rectangle_1501" data-name="Rectangle 1501" width="2.201" height="2.2" transform="translate(155.292 101.08)" fill="none"/>
    </clipPath>
    <clipPath id="clip-path-5">
      <rect id="Rectangle_1500" data-name="Rectangle 1500" width="2.199" height="2.199" transform="translate(155.292 101.081)" fill="none"/>
    </clipPath>
    <clipPath id="clip-path-6">
      <rect id="Rectangle_1503" data-name="Rectangle 1503" width="2.2" height="2.2" transform="translate(151.526 101.08)" fill="none"/>
    </clipPath>
    <clipPath id="clip-path-7">
      <rect id="Rectangle_1502" data-name="Rectangle 1502" width="2.199" height="2.199" transform="translate(151.526 101.081)" fill="none"/>
    </clipPath>
    <clipPath id="clip-path-8">
      <rect id="Rectangle_1505" data-name="Rectangle 1505" width="2.2" height="2.2" transform="translate(147.814 101.08)" fill="none"/>
    </clipPath>
    <clipPath id="clip-path-9">
      <rect id="Rectangle_1504" data-name="Rectangle 1504" width="2.198" height="2.199" transform="translate(147.814 101.081)" fill="none"/>
    </clipPath>
    <clipPath id="clip-path-10">
      <rect id="Rectangle_1508" data-name="Rectangle 1508" width="36.584" height="36.584" transform="translate(112.329 115.891)" fill="none"/>
    </clipPath>
    <clipPath id="clip-path-12">
      <rect id="Rectangle_1511" data-name="Rectangle 1511" width="17.193" height="17.193" transform="translate(129.431 164.809)" fill="none"/>
    </clipPath>
    <clipPath id="clip-path-13">
      <rect id="Rectangle_1510" data-name="Rectangle 1510" width="17.192" height="17.192" transform="translate(129.432 164.809)" fill="none"/>
    </clipPath>
    <clipPath id="clip-path-14">
      <rect id="Rectangle_1514" data-name="Rectangle 1514" width="17.192" height="17.193" transform="translate(98.252 164.809)" fill="none"/>
    </clipPath>
    <clipPath id="clip-path-15">
      <rect id="Rectangle_1513" data-name="Rectangle 1513" width="17.192" height="17.192" transform="translate(98.252 164.809)" fill="none"/>
    </clipPath>
    <clipPath id="clip-path-16">
      <rect id="Rectangle_1517" data-name="Rectangle 1517" width="17.194" height="17.193" transform="translate(67.072 164.809)" fill="none"/>
    </clipPath>
    <clipPath id="clip-path-17">
      <rect id="Rectangle_1516" data-name="Rectangle 1516" width="17.193" height="17.192" transform="translate(67.072 164.809)" fill="none"/>
    </clipPath>
    <clipPath id="clip-path-18">
      <rect id="Rectangle_1520" data-name="Rectangle 1520" width="17.193" height="17.193" transform="translate(35.892 164.809)" fill="none"/>
    </clipPath>
    <clipPath id="clip-path-19">
      <rect id="Rectangle_1519" data-name="Rectangle 1519" width="17.193" height="17.192" transform="translate(35.892 164.809)" fill="none"/>
    </clipPath>
    <clipPath id="clip-path-20">
      <rect id="Rectangle_1523" data-name="Rectangle 1523" width="1.775" height="1.773" transform="translate(406.286 134.014)" fill="none"/>
    </clipPath>
    <clipPath id="clip-path-21">
      <rect id="Rectangle_1522" data-name="Rectangle 1522" width="1.773" height="1.773" transform="translate(406.288 134.014)" fill="none"/>
    </clipPath>
    <clipPath id="clip-path-22">
      <rect id="Rectangle_1525" data-name="Rectangle 1525" width="1.773" height="1.773" transform="translate(403.25 134.014)" fill="none"/>
    </clipPath>
    <clipPath id="clip-path-24">
      <rect id="Rectangle_1527" data-name="Rectangle 1527" width="1.774" height="1.773" transform="translate(400.254 134.014)" fill="none"/>
    </clipPath>
    <clipPath id="clip-path-25">
      <rect id="Rectangle_1526" data-name="Rectangle 1526" width="1.772" height="1.773" transform="translate(400.256 134.014)" fill="none"/>
    </clipPath>
    <clipPath id="clip-path-26">
      <rect id="Rectangle_1530" data-name="Rectangle 1530" width="29.511" height="29.511" transform="translate(371.63 145.959)" fill="none"/>
    </clipPath>
    <clipPath id="clip-path-27">
      <rect id="Rectangle_1529" data-name="Rectangle 1529" width="29.51" height="29.511" transform="translate(371.631 145.959)" fill="none"/>
    </clipPath>
    <clipPath id="clip-path-31">
      <rect id="Rectangle_1539" data-name="Rectangle 1539" width="18.252" height="11.769" transform="translate(117.571 295.523)" fill="none"/>
    </clipPath>
    <clipPath id="clip-path-32">
      <rect id="Rectangle_1538" data-name="Rectangle 1538" width="18.243" height="11.762" transform="translate(117.58 295.522)" fill="none"/>
    </clipPath>
    <clipPath id="clip-path-33">
      <rect id="Rectangle_1541" data-name="Rectangle 1541" width="20.695" height="11.758" transform="translate(146.641 283.612)" fill="none"/>
    </clipPath>
    <clipPath id="clip-path-34">
      <rect id="Rectangle_1540" data-name="Rectangle 1540" width="20.694" height="11.757" transform="translate(146.642 283.611)" fill="none"/>
    </clipPath>
    <clipPath id="clip-path-35">
      <rect id="Rectangle_1543" data-name="Rectangle 1543" width="11.547" height="16.835" transform="translate(236.021 363.677)" fill="none"/>
    </clipPath>
    <clipPath id="clip-path-36">
      <rect id="Rectangle_1542" data-name="Rectangle 1542" width="11.547" height="16.83" transform="translate(236.021 363.682)" fill="none"/>
    </clipPath>
    <clipPath id="clip-path-37">
      <rect id="Rectangle_1545" data-name="Rectangle 1545" width="52.787" height="22.179" transform="translate(174.116 363.71)" fill="none"/>
    </clipPath>
  </defs>
  <g id="Group_10358" data-name="Group 10358" clip-path="url(#clip-path)">
    <g id="Group_10265" data-name="Group 10265">
      <g id="Group_10264" data-name="Group 10264" clip-path="url(#clip-path-2)">
        <path id="Path_25234" data-name="Path 25234" d="M52.584,85.884c.012.041-.519.13-1.355.562a5.964,5.964,0,0,0-2.657,2.835,5.831,5.831,0,1,0,9.091-2.037,5.964,5.964,0,0,0-3.614-1.427c-.941-.03-1.457.112-1.464.07a4.506,4.506,0,0,1,1.468-.2,5.952,5.952,0,0,1,3.766,1.375,6.022,6.022,0,0,1,1.7,2.246A6.126,6.126,0,1,1,47.78,91.944a6.014,6.014,0,0,1,.576-2.756,5.947,5.947,0,0,1,2.818-2.853,4.541,4.541,0,0,1,1.414-.443" fill="#e0e0e0"/>
        <path id="Path_25235" data-name="Path 25235" d="M47.791,79.494a1.857,1.857,0,0,1-.012-.224c0-.159-.01-.371-.01-.647q-.009-.872-.025-2.5V76.08l.043-.009,5.434-1.253.067-.015.03.063c.442.921.933,1.943,1.457,3.037l-.086-.058a13.8,13.8,0,0,1,3.612.617l-.113.027L60.569,76.1l.069-.07.083.053,4.716,2.973.092.058-.036.1L64.369,82.4l-.03-.143a13.758,13.758,0,0,1,2.121,3l-.13-.079h3.49l.027.12,1.226,5.439.031.121-.115.055-3.041,1.448.093-.141a13.951,13.951,0,0,1-.629,3.625l-.041-.167,2.381,2.386.094.1-.073.113-2.989,4.715-.073.115-.129-.046-3.175-1.129.173-.036a13.84,13.84,0,0,1-3.006,2.118c.041-.068-.093.148.092-.152v3.506l-.134.03-5.44,1.219-.133.029-.059-.123q-.728-1.536-1.443-3.043l.145.1a13.74,13.74,0,0,1-3.624-.632l.166-.041-2.39,2.376-.092.092-.11-.069-4.706-2.989-.107-.068.043-.119q.576-1.615,1.134-3.174l.032.156A13.82,13.82,0,0,1,41.835,98.1l.131.08L38.6,98.167h-.114l-.026-.11c-.425-1.915-.828-3.722-1.209-5.443l-.023-.1.094-.044,3.046-1.439-.07.107a13.762,13.762,0,0,1,.639-3.61l.028.113c-.861-.874-1.637-1.658-2.37-2.4l-.058-.058.043-.068c1.165-1.823,2.156-3.374,3.006-4.7l.033-.053.058.021,3.167,1.151-.057.011a13.33,13.33,0,0,1,2.21-1.634c.262-.154.463-.258.6-.326a1.906,1.906,0,0,1,.2-.093,1.381,1.381,0,0,1-.191.118c-.14.084-.331.2-.579.349a14.142,14.142,0,0,0-2.164,1.666l-.025.023-.032-.011-3.182-1.109.092-.031L38.745,85.22l-.014-.126c.739.736,1.519,1.515,2.386,2.38l.047.048-.02.066a13.64,13.64,0,0,0-.609,3.551v.075l-.067.032L37.428,92.7l.073-.147,1.231,5.438-.138-.111h3.458l.042.08a13.528,13.528,0,0,0,2.075,2.936l.063.068-.031.088-1.126,3.177-.064-.186,4.712,2.979-.2.022,2.386-2.379.071-.072.1.03a13.46,13.46,0,0,0,3.538.614h.1l.043.093,1.447,3.043-.192-.093,5.441-1.222-.134.167v-3.368l.093-.153a13.537,13.537,0,0,0,2.931-2.065l.076-.071.1.035,3.175,1.131-.2.069,2.986-4.708.024.208-2.377-2.389-.071-.072.03-.1a13.583,13.583,0,0,0,.619-3.537v-.1l.09-.042,3.044-1.442-.088.179c-.421-1.889-.833-3.732-1.213-5.442l.148.12-3.368-.012h-.09l-.042-.079a13.558,13.558,0,0,0-2.065-2.944l-.059-.063.028-.08c.4-1.109.786-2.191,1.137-3.174l.056.16-4.7-2.994.151-.017-2.4,2.371-.049.048-.064-.021a13.653,13.653,0,0,0-3.551-.63h-.062l-.026-.055-1.433-3.049.1.048L47.81,76.175l.043-.053c-.014,1.093-.026,1.935-.034,2.52-.007.272-.015.481-.015.638a1.228,1.228,0,0,1-.013.21" fill="#e0e0e0"/>
        <path id="Path_25236" data-name="Path 25236" d="M14.814,351.421s-.014-.326-.017-1-.009-1.66-.017-2.95c-.009-2.61-.023-6.436-.039-11.35-.02-9.875-.048-24.106-.082-41.58v-.155h.156l98.3-.046h.21v.2c-.006,20.13-.015,39.361-.015,56.875v.188h-.187l-70.829-.09-20.261-.051-5.377-.024-1.378-.01c-.309,0-.46-.012-.46-.012s.166-.012.482-.012l1.4-.009,5.415-.024,20.3-.052,70.7-.089-.187.186c0-17.514-.008-36.745-.014-56.875l.2.2h-.008l-98.3-.045.155-.155c-.034,17.433-.062,31.632-.082,41.483-.016,4.929-.031,8.768-.04,11.385-.007,1.3-.01,2.307-.016,2.98s-.017,1.027-.017,1.027" fill="#e0e0e0"/>
        <path id="Path_25237" data-name="Path 25237" d="M14.768,301.426c0-.109,21.98-.2,49.107-.2s49.11.091,49.11.2-21.992.2-49.11.2-49.107-.089-49.107-.2" fill="#e0e0e0"/>
        <rect id="Rectangle_1497" data-name="Rectangle 1497" width="30.366" height="30.367" transform="translate(74.231 310.805)" fill="#f5f5f5"/>
        <path id="Path_25238" data-name="Path 25238" d="M21.935,315.813a1.974,1.974,0,0,1,.447-.041l1.281-.038,4.71-.063,15.538-.059,15.541.059,4.71.063,1.281.038a2.034,2.034,0,0,1,.447.041,1.815,1.815,0,0,1-.447.041l-1.281.038-4.71.065-15.541.058-15.538-.058-4.71-.065-1.281-.038a1.811,1.811,0,0,1-.447-.041" fill="#e0e0e0"/>
        <path id="Path_25239" data-name="Path 25239" d="M20.957,322.6a2,2,0,0,1,.456-.041l1.309-.038,4.815-.063,15.885-.059,15.887.059,4.815.063,1.307.038a2.015,2.015,0,0,1,.458.041,2.013,2.013,0,0,1-.458.041l-1.307.038-4.815.063-15.887.059-15.885-.059-4.815-.063-1.309-.038a2,2,0,0,1-.456-.041" fill="#e0e0e0"/>
        <path id="Path_25240" data-name="Path 25240" d="M20.957,329.379a1.888,1.888,0,0,1,.456-.041l1.309-.038,4.815-.064,15.885-.058,15.887.058,4.815.064,1.307.038a1.957,1.957,0,0,1,.458.041,2.013,2.013,0,0,1-.458.041l-1.307.038-4.815.063-15.887.059-15.885-.059-4.815-.063-1.309-.038a2,2,0,0,1-.456-.041" fill="#e0e0e0"/>
        <path id="Path_25241" data-name="Path 25241" d="M20.957,336.162a2,2,0,0,1,.456-.041l1.309-.038,4.815-.064,15.885-.058,15.887.058,4.815.064,1.307.038a2.02,2.02,0,0,1,.458.041,2.013,2.013,0,0,1-.458.041l-1.307.037-4.815.065-15.887.058L27.537,336.3l-4.815-.065-1.309-.037a2,2,0,0,1-.456-.041" fill="#e0e0e0"/>
        <path id="Path_25242" data-name="Path 25242" d="M280.523,42.123a8.207,8.207,0,0,1,1.443-.1l3.971-.08c3.369-.046,8.062-.079,13.362-.087l-.262.262v-2.65c0-5.918.03-11.275.077-15.152.034-1.87.063-3.418.084-4.593a10.189,10.189,0,0,1,.1-1.683,10.3,10.3,0,0,1,.1,1.683c.022,1.176.05,2.723.084,4.593.048,3.877.077,9.234.077,15.152V42.38H299.3c-5.3-.008-9.993-.041-13.362-.087l-3.971-.08a8.106,8.106,0,0,1-1.443-.1" fill="#e0e0e0"/>
        <path id="Path_25243" data-name="Path 25243" d="M299.17,6.712a11.407,11.407,0,0,1,.264,3.431,11.413,11.413,0,0,1-.264,3.432,11.317,11.317,0,0,1-.265-3.432,11.341,11.341,0,0,1,.265-3.431" fill="#e0e0e0"/>
        <path id="Path_25244" data-name="Path 25244" d="M280.554,12.228a11.108,11.108,0,0,1,2.579,2.2,11.13,11.13,0,0,1,2.205,2.579,10.976,10.976,0,0,1-2.579-2.2,11.06,11.06,0,0,1-2.205-2.578" fill="#e0e0e0"/>
        <path id="Path_25245" data-name="Path 25245" d="M269.67,24.116a9.06,9.06,0,0,1,3.09,1.427,9.089,9.089,0,0,1,2.689,2.085,14.229,14.229,0,0,1-2.965-1.634,14.236,14.236,0,0,1-2.814-1.879" fill="#e0e0e0"/>
        <path id="Path_25246" data-name="Path 25246" d="M263.29,41.759a41.6,41.6,0,0,1,9.359,0,41.6,41.6,0,0,1-9.359,0" fill="#e0e0e0"/>
        <path id="Path_25247" data-name="Path 25247" d="M328.184,41.135a37.133,37.133,0,0,1,8.84,0,37.133,37.133,0,0,1-8.84,0" fill="#e0e0e0"/>
        <path id="Path_25248" data-name="Path 25248" d="M323.594,54.271a19.51,19.51,0,0,1,3.671,2.618,19.564,19.564,0,0,1,3.34,3.029,19.174,19.174,0,0,1-3.671-2.618,19.176,19.176,0,0,1-3.34-3.029" fill="#e0e0e0"/>
        <path id="Path_25249" data-name="Path 25249" d="M312.272,64.43A14.82,14.82,0,0,1,315,68.1a14.827,14.827,0,0,1,1.959,4.129,30.2,30.2,0,0,1-2.412-3.856,30.046,30.046,0,0,1-2.273-3.94" fill="#e0e0e0"/>
        <path id="Path_25250" data-name="Path 25250" d="M299.165,77.535a20.889,20.889,0,0,1-.264-4.679,20.9,20.9,0,0,1,.264-4.68,20.958,20.958,0,0,1,.265,4.68,21.046,21.046,0,0,1-.259,4.677" fill="#e0e0e0"/>
        <path id="Path_25251" data-name="Path 25251" d="M279,71.3a42.86,42.86,0,0,1,3.512-3.042A43.227,43.227,0,0,1,286,65.193a13.672,13.672,0,0,1-3.145,3.462A13.669,13.669,0,0,1,279,71.3" fill="#e0e0e0"/>
        <path id="Path_25252" data-name="Path 25252" d="M269.532,61.1a16.253,16.253,0,0,1,2.725-3.1,16.278,16.278,0,0,1,3.1-2.724,16.217,16.217,0,0,1-2.724,3.1,16.26,16.26,0,0,1-3.1,2.725" fill="#e0e0e0"/>
        <path id="Path_25253" data-name="Path 25253" d="M324.024,28.551a12.487,12.487,0,0,1,2.361-2.735,12.49,12.49,0,0,1,2.735-2.361,12.54,12.54,0,0,1-2.361,2.735,12.54,12.54,0,0,1-2.735,2.361" fill="#e0e0e0"/>
        <path id="Path_25254" data-name="Path 25254" d="M312.341,16.242a12.009,12.009,0,0,1,2.314-2.677,12.028,12.028,0,0,1,2.69-2.3,12.044,12.044,0,0,1-2.316,2.678,12.043,12.043,0,0,1-2.688,2.3" fill="#e0e0e0"/>
        <path id="Path_25255" data-name="Path 25255" d="M393.125,114.6c-2.911-10.181-10.184-16.872-18.911-16s-9.6,7.961-26.77,6.4c-17.974-1.637-24.15,9.6-24.15,9.6h69.831" fill="#f5f5f5"/>
        <path id="Path_25256" data-name="Path 25256" d="M241.994,241.56c-2.354-8.242-8.24-13.661-15.308-12.954s-7.772,6.446-21.667,5.183c-14.546-1.329-19.546,7.771-19.546,7.771h56.521" fill="#f5f5f5"/>
        <path id="Path_25257" data-name="Path 25257" d="M0,381.032c0-.136,97.278-.244,217.248-.244,120.012,0,217.268.107,217.268.244s-97.256.247-217.268.246C97.278,381.278,0,381.17,0,381.032" fill="#263238"/>
      </g>
    </g>
    <rect id="Rectangle_1499" data-name="Rectangle 1499" width="137.147" height="91.828" transform="translate(23.557 98.12)" fill="#fff"/>
    <g id="Group_10327" data-name="Group 10327">
      <g id="Group_10326" data-name="Group 10326" clip-path="url(#clip-path-2)">
        <path id="Path_25258" data-name="Path 25258" d="M23.546,189.949s-.015-.534-.021-1.629-.014-2.708-.023-4.808c-.012-4.24-.028-10.459-.051-18.424-.022-15.984-.058-38.958-.1-66.967v-.2h.2l137.137-.049h.257v.246c-.008,32.713-.015,63.822-.021,91.828v.226H160.7l-98.953-.111L33.567,190l-7.464-.027-1.913-.013c-.428-.005-.639-.013-.639-.013s.229-.013.665-.013l1.939-.013,7.509-.027,28.229-.06,98.806-.11-.225.225c-.007-28.006-.014-59.114-.022-91.828l.246.245h-.01L23.551,98.318l.2-.2c-.041,27.958-.076,50.89-.1,66.845-.023,7.983-.039,14.218-.051,18.468-.01,2.12-.015,3.748-.022,4.845s-.021,1.671-.021,1.671" fill="#d8dbff"/>
        <path id="Path_25259" data-name="Path 25259" d="M160.7,106.313c0,.135-30.666.245-68.514.245s-68.52-.11-68.52-.245,30.684-.245,68.52-.245,68.514.109,68.514.245" fill="#d8dbff"/>
        <g id="Group_10270" data-name="Group 10270" opacity="0.3">
          <g id="Group_10269" data-name="Group 10269">
            <g id="Group_10268" data-name="Group 10268" clip-path="url(#clip-path-4)">
              <g id="Group_10267" data-name="Group 10267">
                <g id="Group_10266" data-name="Group 10266" clip-path="url(#clip-path-5)">
                  <path id="Path_25260" data-name="Path 25260" d="M155.293,102.18h0a1.1,1.1,0,1,1,1.1,1.1,1.1,1.1,0,0,1-1.1-1.1" fill="#467cdb"/>
                </g>
              </g>
            </g>
          </g>
        </g>
        <g id="Group_10275" data-name="Group 10275" opacity="0.3">
          <g id="Group_10274" data-name="Group 10274">
            <g id="Group_10273" data-name="Group 10273" clip-path="url(#clip-path-6)">
              <g id="Group_10272" data-name="Group 10272">
                <g id="Group_10271" data-name="Group 10271" clip-path="url(#clip-path-7)">
                  <path id="Path_25261" data-name="Path 25261" d="M151.526,102.18h0a1.1,1.1,0,1,1,1.1,1.1,1.1,1.1,0,0,1-1.1-1.1" fill="#467cdb"/>
                </g>
              </g>
            </g>
          </g>
        </g>
        <g id="Group_10280" data-name="Group 10280" opacity="0.3">
          <g id="Group_10279" data-name="Group 10279">
            <g id="Group_10278" data-name="Group 10278" clip-path="url(#clip-path-8)">
              <g id="Group_10277" data-name="Group 10277">
                <g id="Group_10276" data-name="Group 10276" clip-path="url(#clip-path-9)">
                  <path id="Path_25262" data-name="Path 25262" d="M147.814,102.18h0a1.1,1.1,0,1,1,1.1,1.1,1.1,1.1,0,0,1-1.1-1.1" fill="#467cdb"/>
                </g>
              </g>
            </g>
          </g>
        </g>
        <g id="Group_10285" data-name="Group 10285" opacity="0.3">
          <g id="Group_10284" data-name="Group 10284">
            <g id="Group_10283" data-name="Group 10283" clip-path="url(#clip-path-10)">
              <g id="Group_10282" data-name="Group 10282">
                <g id="Group_10281" data-name="Group 10281" clip-path="url(#clip-path-10)">
                  <rect id="Rectangle_1506" data-name="Rectangle 1506" width="36.584" height="36.584" transform="translate(112.329 115.891)" fill="#7e89fd"/>
                </g>
              </g>
            </g>
          </g>
        </g>
        <path id="Path_25263" data-name="Path 25263" d="M42.364,126.227c0-.136,14.262-.245,31.865-.245s31.869.109,31.869.245-14.272.246-31.869.246-31.865-.11-31.865-.246" fill="#d8dbff"/>
        <path id="Path_25264" data-name="Path 25264" d="M42.364,133.029c0-.135,14.262-.245,31.865-.245s31.869.109,31.869.245-14.272.246-31.869.246-31.865-.11-31.865-.246" fill="#d8dbff"/>
        <path id="Path_25265" data-name="Path 25265" d="M42.364,139.827c0-.135,14.262-.245,31.865-.245s31.869.109,31.869.245-14.272.246-31.869.246-31.865-.11-31.865-.246" fill="#d8dbff"/>
        <path id="Path_25266" data-name="Path 25266" d="M68.429,146.626a8.616,8.616,0,0,1,1.48-.1l4.037-.078c3.408-.045,8.114-.072,13.316-.072s9.91.028,13.319.072l4.036.078a8.63,8.63,0,0,1,1.48.1,8.631,8.631,0,0,1-1.48.1l-4.036.077c-3.409.045-8.119.073-13.319.073s-9.908-.029-13.316-.073l-4.037-.077a8.618,8.618,0,0,1-1.48-.1" fill="#d8dbff"/>
        <g id="Group_10290" data-name="Group 10290" opacity="0.3">
          <g id="Group_10289" data-name="Group 10289">
            <g id="Group_10288" data-name="Group 10288" clip-path="url(#clip-path-12)">
              <g id="Group_10287" data-name="Group 10287">
                <g id="Group_10286" data-name="Group 10286" clip-path="url(#clip-path-13)">
                  <rect id="Rectangle_1509" data-name="Rectangle 1509" width="17.193" height="17.193" transform="translate(129.431 164.809)" fill="#e8505b"/>
                </g>
              </g>
            </g>
          </g>
        </g>
        <g id="Group_10295" data-name="Group 10295" opacity="0.3">
          <g id="Group_10294" data-name="Group 10294">
            <g id="Group_10293" data-name="Group 10293" clip-path="url(#clip-path-14)">
              <g id="Group_10292" data-name="Group 10292">
                <g id="Group_10291" data-name="Group 10291" clip-path="url(#clip-path-15)">
                  <rect id="Rectangle_1512" data-name="Rectangle 1512" width="17.192" height="17.193" transform="translate(98.252 164.809)" fill="#7e89fd"/>
                </g>
              </g>
            </g>
          </g>
        </g>
        <g id="Group_10300" data-name="Group 10300" opacity="0.3">
          <g id="Group_10299" data-name="Group 10299">
            <g id="Group_10298" data-name="Group 10298" clip-path="url(#clip-path-16)">
              <g id="Group_10297" data-name="Group 10297">
                <g id="Group_10296" data-name="Group 10296" clip-path="url(#clip-path-17)">
                  <rect id="Rectangle_1515" data-name="Rectangle 1515" width="17.193" height="17.193" transform="translate(67.073 164.809)" fill="#7e89fd"/>
                </g>
              </g>
            </g>
          </g>
        </g>
        <g id="Group_10305" data-name="Group 10305" opacity="0.3">
          <g id="Group_10304" data-name="Group 10304">
            <g id="Group_10303" data-name="Group 10303" clip-path="url(#clip-path-18)">
              <g id="Group_10302" data-name="Group 10302">
                <g id="Group_10301" data-name="Group 10301" clip-path="url(#clip-path-19)">
                  <rect id="Rectangle_1518" data-name="Rectangle 1518" width="17.193" height="17.193" transform="translate(35.892 164.809)" fill="#7e89fd"/>
                </g>
              </g>
            </g>
          </g>
        </g>
        <rect id="Rectangle_1521" data-name="Rectangle 1521" width="122.175" height="49.625" transform="translate(289.349 131.202)" fill="#fff"/>
        <path id="Path_25267" data-name="Path 25267" d="M289.345,180.83s-.01-.277-.015-.859-.006-1.434-.013-2.55c-.009-2.257-.02-5.574-.034-9.846-.017-8.584-.043-21-.075-36.371v-.136h.137l122.167-.058h.2v.194c0,17.378-.009,34.153-.009,49.625v.186h-.184l-87.723-.087-25.368-.052-6.764-.024-1.738-.011c-.39,0-.582-.011-.582-.011s.205-.011.605-.011l1.761-.011,6.8-.024,25.412-.052,87.6-.087-.185.185c0-15.472-.009-32.247-.009-49.625l.2.194h-.008l-122.167-.058.136-.136c-.033,15.333-.057,27.723-.075,36.288-.013,4.285-.025,7.611-.033,9.876-.007,1.126-.01,1.99-.014,2.575s-.014.885-.014.885" fill="#d7dbfe"/>
        <path id="Path_25268" data-name="Path 25268" d="M411.4,137.894c0,.107-27.293.194-60.987.194s-60.993-.087-60.993-.194,27.315-.194,60.993-.194,60.987.087,60.987.194" fill="#d7dbfe"/>
        <g id="Group_10310" data-name="Group 10310" opacity="0.3">
          <g id="Group_10309" data-name="Group 10309">
            <g id="Group_10308" data-name="Group 10308" clip-path="url(#clip-path-20)">
              <g id="Group_10307" data-name="Group 10307">
                <g id="Group_10306" data-name="Group 10306" clip-path="url(#clip-path-21)">
                  <path id="Path_25269" data-name="Path 25269" d="M406.286,134.9h0a.886.886,0,1,1,.887.886.886.886,0,0,1-.887-.886" fill="#467cdb"/>
                </g>
              </g>
            </g>
          </g>
        </g>
        <g id="Group_10315" data-name="Group 10315" opacity="0.3">
          <g id="Group_10314" data-name="Group 10314">
            <g id="Group_10313" data-name="Group 10313" clip-path="url(#clip-path-22)">
              <g id="Group_10312" data-name="Group 10312">
                <g id="Group_10311" data-name="Group 10311" clip-path="url(#clip-path-22)">
                  <path id="Path_25270" data-name="Path 25270" d="M403.25,134.9h0a.885.885,0,1,1,.887.886.885.885,0,0,1-.887-.886" fill="#467cdb"/>
                </g>
              </g>
            </g>
          </g>
        </g>
        <g id="Group_10320" data-name="Group 10320" opacity="0.3">
          <g id="Group_10319" data-name="Group 10319">
            <g id="Group_10318" data-name="Group 10318" clip-path="url(#clip-path-24)">
              <g id="Group_10317" data-name="Group 10317">
                <g id="Group_10316" data-name="Group 10316" clip-path="url(#clip-path-25)">
                  <path id="Path_25271" data-name="Path 25271" d="M400.254,134.9h0a.885.885,0,1,1,.886.886.885.885,0,0,1-.886-.886" fill="#467cdb"/>
                </g>
              </g>
            </g>
          </g>
        </g>
        <g id="Group_10325" data-name="Group 10325" opacity="0.3">
          <g id="Group_10324" data-name="Group 10324">
            <g id="Group_10323" data-name="Group 10323" clip-path="url(#clip-path-26)">
              <g id="Group_10322" data-name="Group 10322">
                <g id="Group_10321" data-name="Group 10321" clip-path="url(#clip-path-27)">
                  <rect id="Rectangle_1528" data-name="Rectangle 1528" width="29.511" height="29.51" transform="translate(371.63 145.96)" fill="#7e89fd"/>
                </g>
              </g>
            </g>
          </g>
        </g>
        <path id="Path_25272" data-name="Path 25272" d="M297.8,153.869c0-.107,15.178-.194,33.913-.194s33.917.087,33.917.194-15.189.194-33.917.194-33.913-.087-33.913-.194" fill="#d7dbfe"/>
        <path id="Path_25273" data-name="Path 25273" d="M297.8,159.88c0-.107,15.178-.194,33.913-.194s33.917.087,33.917.194-15.189.194-33.917.194-33.913-.087-33.913-.194" fill="#d7dbfe"/>
        <path id="Path_25274" data-name="Path 25274" d="M321.968,165.891a1.942,1.942,0,0,1,.443-.039l1.273-.037,4.679-.061L343.8,165.7l15.44.057,4.677.061,1.274.037a1.937,1.937,0,0,1,.443.039,1.939,1.939,0,0,1-.443.04l-1.274.036-4.677.061-15.44.057-15.436-.057-4.679-.061-1.273-.036a2,2,0,0,1-.443-.04" fill="#d7dbfe"/>
        <path id="Path_25275" data-name="Path 25275" d="M199.578,68.842c-1.25.069-2,3.174-1.764,4.995a7.619,7.619,0,0,0,2.943,4.5,18.832,18.832,0,0,1,3.922,3.829c1.847,2.91,1.467,7.1,4.038,9.383s6.607,1.371,9.871,2.456c3.193,1.063,5.4,3.937,8.2,5.8A10.1,10.1,0,0,0,235,101.446c2.769-.8,5.034-3.55,4.707-6.414-.563-4.91-7.129-6.456-9.863-10.572-1.624-2.443-1.841-5.763-3.966-7.786-3.35-3.187-9-1.2-13.306-2.877-2.293-.891-4.046-2.764-6.093-4.13s-4.859-2.192-6.907-.826" fill="#f5f5f5"/>
        <path id="Path_25276" data-name="Path 25276" d="M252.768,269.4c.116.069-.085.568-.445,1.121s-.743.931-.854.854.089-.582.444-1.123.739-.924.855-.853" fill="#263238"/>
        <path id="Path_25277" data-name="Path 25277" d="M256.814,260.881a11.481,11.481,0,0,1-1.793,4.37,11.459,11.459,0,0,1,1.793-4.37" fill="#263238"/>
        <path id="Path_25278" data-name="Path 25278" d="M259,251.7a11.482,11.482,0,0,1-.862,4.645A11.5,11.5,0,0,1,259,251.7" fill="#263238"/>
        <path id="Path_25279" data-name="Path 25279" d="M259.336,242.273A11.48,11.48,0,0,1,259.4,247a11.43,11.43,0,0,1-.064-4.724" fill="#263238"/>
        <path id="Path_25280" data-name="Path 25280" d="M257.807,232.962a11.5,11.5,0,0,1,1,4.619,11.478,11.478,0,0,1-1-4.619" fill="#263238"/>
        <path id="Path_25281" data-name="Path 25281" d="M254.413,224.164a11.461,11.461,0,0,1,1.933,4.309,11.475,11.475,0,0,1-1.933-4.309" fill="#263238"/>
        <path id="Path_25282" data-name="Path 25282" d="M249.216,216.3c.1-.086.828.693,1.6,1.75s1.328,1.964,1.2,2.048a6.4,6.4,0,0,1-1.6-1.756,5.919,5.919,0,0,1-1.21-2.042" fill="#263238"/>
        <path id="Path_25283" data-name="Path 25283" d="M242.865,209.3c.1-.1.9.594,1.808,1.541s1.551,1.788,1.45,1.879-.907-.6-1.807-1.541-1.551-1.779-1.451-1.879" fill="#263238"/>
        <path id="Path_25284" data-name="Path 25284" d="M236.219,202.591c.1-.091.918.581,1.833,1.509s1.577,1.757,1.481,1.854-.917-.579-1.833-1.509-1.582-1.76-1.481-1.854" fill="#263238"/>
        <path id="Path_25285" data-name="Path 25285" d="M230.013,195.474c.108-.081.865.671,1.688,1.671a5.909,5.909,0,0,1,1.308,1.981c-.1.09-.858-.659-1.688-1.671s-1.416-1.9-1.307-1.981" fill="#263238"/>
        <path id="Path_25286" data-name="Path 25286" d="M225.2,187.371a7.051,7.051,0,0,1,1.23,2.021,6.919,6.919,0,0,1,.934,2.175c-.114.071-.77-.779-1.371-1.949a5.07,5.07,0,0,1-.793-2.247" fill="#263238"/>
        <path id="Path_25287" data-name="Path 25287" d="M222.9,178.248a18.58,18.58,0,0,1,.774,4.656,8.328,8.328,0,0,1-.774-4.656" fill="#263238"/>
        <path id="Path_25288" data-name="Path 25288" d="M223.6,168.865a18.5,18.5,0,0,1-.726,4.663,8.339,8.339,0,0,1,.726-4.663" fill="#263238"/>
        <path id="Path_25289" data-name="Path 25289" d="M227.307,160.23a19.889,19.889,0,0,1-2.23,4.152,4.9,4.9,0,0,1,.805-2.243c.624-1.162,1.315-1.985,1.424-1.909" fill="#263238"/>
        <path id="Path_25290" data-name="Path 25290" d="M233.9,153.531c.076.115-.729.789-1.724,1.615a7.956,7.956,0,0,1-1.9,1.411c-.1-.088.564-.942,1.579-1.788a4.852,4.852,0,0,1,2.039-1.239" fill="#263238"/>
        <path id="Path_25291" data-name="Path 25291" d="M242.472,149.7a20.142,20.142,0,0,1-4.465,1.525,8.056,8.056,0,0,1,4.469-1.525" fill="#263238"/>
        <path id="Path_25292" data-name="Path 25292" d="M251.856,149.276a7.787,7.787,0,0,1-2.361,0,7.667,7.667,0,0,1-2.35-.25,7.774,7.774,0,0,1,4.711.25" fill="#263238"/>
        <path id="Path_25293" data-name="Path 25293" d="M260.564,152.742a7.887,7.887,0,0,1-2.133-1.014,8.049,8.049,0,0,1-2.023-1.215,4.669,4.669,0,0,1,2.256.783c1.167.625,1.978,1.339,1.9,1.446" fill="#263238"/>
        <path id="Path_25294" data-name="Path 25294" d="M267.049,159.53c-.118.072-.758-.765-1.546-1.785a8.05,8.05,0,0,1-1.347-1.94c.093-.093.925.594,1.734,1.639a4.777,4.777,0,0,1,1.159,2.086" fill="#263238"/>
        <path id="Path_25295" data-name="Path 25295" d="M270.227,168.351a8.111,8.111,0,0,1-.662-2.265,7.935,7.935,0,0,1-.445-2.318,4.693,4.693,0,0,1,.923,2.2,4.645,4.645,0,0,1,.183,2.381" fill="#263238"/>
        <path id="Path_25296" data-name="Path 25296" d="M269.106,177.645a7.9,7.9,0,0,1,.445-2.318,7.992,7.992,0,0,1,.668-2.263,7.547,7.547,0,0,1-1.113,4.58" fill="#263238"/>
        <path id="Path_25297" data-name="Path 25297" d="M264.317,185.732a7.169,7.169,0,0,1,1.253-2.006c.758-1.048,1.381-1.9,1.5-1.829a4.934,4.934,0,0,1-1.1,2.116c-.769,1.07-1.551,1.806-1.652,1.719" fill="#263238"/>
        <path id="Path_25298" data-name="Path 25298" d="M257.368,192.1c-.074-.113.716-.81,1.726-1.623a6.922,6.922,0,0,1,1.947-1.346c.092.1-.616.9-1.64,1.728a5.217,5.217,0,0,1-2.033,1.24" fill="#263238"/>
        <path id="Path_25299" data-name="Path 25299" d="M249.185,196.789a11.467,11.467,0,0,1,4.21-2.142c.069.118-.824.691-1.994,1.29a5.817,5.817,0,0,1-2.217.852" fill="#263238"/>
        <path id="Path_25300" data-name="Path 25300" d="M240.2,199.648a16,16,0,0,1,4.574-1.171,8.975,8.975,0,0,1-4.57,1.171" fill="#263238"/>
        <path id="Path_25301" data-name="Path 25301" d="M230.8,200.14a7.116,7.116,0,0,1,2.36-.11,7.038,7.038,0,0,1,2.357.2,8.483,8.483,0,0,1-4.717-.094" fill="#263238"/>
        <path id="Path_25302" data-name="Path 25302" d="M221.714,197.708a7.267,7.267,0,0,1,2.27.658,7.355,7.355,0,0,1,2.17.937,8.288,8.288,0,0,1-4.441-1.6" fill="#263238"/>
        <path id="Path_25303" data-name="Path 25303" d="M213.837,192.547a6.9,6.9,0,0,1,1.971,1.308c1.024.79,1.849,1.448,1.774,1.564a5.039,5.039,0,0,1-2.073-1.173c-1.045-.8-1.762-1.6-1.672-1.7" fill="#263238"/>
        <path id="Path_25304" data-name="Path 25304" d="M207.692,185.4c.116-.075.775.752,1.555,1.787a6.952,6.952,0,0,1,1.282,1.989c-.1.088-.888-.641-1.676-1.694a5.162,5.162,0,0,1-1.161-2.082" fill="#263238"/>
        <path id="Path_25305" data-name="Path 25305" d="M203.607,176.915a16.731,16.731,0,0,1,1.766,4.379,8.767,8.767,0,0,1-1.766-4.379" fill="#263238"/>
        <path id="Path_25306" data-name="Path 25306" d="M201.777,167.668a6.724,6.724,0,0,1,.5,2.315,6.808,6.808,0,0,1,.144,2.363,9.069,9.069,0,0,1-.641-4.678" fill="#263238"/>
        <path id="Path_25307" data-name="Path 25307" d="M202.02,158.237a11.476,11.476,0,0,1-.365,4.709,11.476,11.476,0,0,1,.365-4.709" fill="#263238"/>
        <path id="Path_25308" data-name="Path 25308" d="M204.07,149.023a11.458,11.458,0,0,1-1.235,4.562,11.5,11.5,0,0,1,1.235-4.562" fill="#263238"/>
        <path id="Path_25309" data-name="Path 25309" d="M207.684,140.3a6,6,0,0,1-.812,2.227,5.917,5.917,0,0,1-1.176,2.058,9.743,9.743,0,0,1,1.988-4.285" fill="#263238"/>
        <path id="Path_25310" data-name="Path 25310" d="M212.328,132.076a5.9,5.9,0,0,1-.983,2.161c-.659,1.124-1.289,1.98-1.407,1.913a5.875,5.875,0,0,1,.983-2.161c.66-1.126,1.29-1.983,1.407-1.913" fill="#263238"/>
        <path id="Path_25311" data-name="Path 25311" d="M217.016,123.876a5.855,5.855,0,0,1-.928,2.184c-.633,1.147-1.241,2.016-1.358,1.947a11.459,11.459,0,0,1,2.286-4.132" fill="#263238"/>
        <path id="Path_25312" data-name="Path 25312" d="M220.7,115.194a11.427,11.427,0,0,1-1.646,4.421,11.443,11.443,0,0,1,1.646-4.421" fill="#263238"/>
        <path id="Path_25313" data-name="Path 25313" d="M222.309,105.911a8.82,8.82,0,0,1-.5,4.694,6.96,6.96,0,0,1,.081-2.365,6.882,6.882,0,0,1,.419-2.329" fill="#263238"/>
        <path id="Path_25314" data-name="Path 25314" d="M221.529,96.518a8.9,8.9,0,0,1,.684,4.673,6.884,6.884,0,0,1-.514-2.312,6.874,6.874,0,0,1-.17-2.361" fill="#263238"/>
        <path id="Path_25315" data-name="Path 25315" d="M218.451,87.61a8.821,8.821,0,0,1,1.82,4.355,6.928,6.928,0,0,1-1.068-2.112,6.967,6.967,0,0,1-.752-2.243" fill="#263238"/>
        <path id="Path_25316" data-name="Path 25316" d="M213.19,79.793c.1-.09.9.628,1.7,1.668a5.118,5.118,0,0,1,1.189,2.065c-.116.076-.785-.741-1.578-1.764a6.935,6.935,0,0,1-1.313-1.968" fill="#263238"/>
        <path id="Path_25317" data-name="Path 25317" d="M206.1,73.582a5.148,5.148,0,0,1,2.065,1.189c1.042.8,1.764,1.594,1.674,1.694a6.869,6.869,0,0,1-1.976-1.306c-1.024-.792-1.84-1.463-1.764-1.578" fill="#263238"/>
        <path id="Path_25318" data-name="Path 25318" d="M197.7,69.309a8.88,8.88,0,0,1,4.335,1.873A6.83,6.83,0,0,1,199.8,70.4a6.9,6.9,0,0,1-2.1-1.094" fill="#263238"/>
        <path id="Path_25319" data-name="Path 25319" d="M190.855,67.577c.019-.135.558-.146,1.205-.027s1.147.327,1.117.455-.57.146-1.206.028-1.137-.322-1.117-.456" fill="#263238"/>
        <path id="Path_25320" data-name="Path 25320" d="M156.2,59.781c-12.3-10.1-11.044-22.8-11.044-22.8a30.853,30.853,0,0,1,26.431,2.8" fill="#7e89fd"/>
        <path id="Path_25321" data-name="Path 25321" d="M171.589,39.78c-.148-.1-.3-.2-.451-.291a12.646,12.646,0,0,0-13.231,21.556l36.132,22.26s12.028-19.345,12.5-20.053Z" fill="#7e89fd"/>
        <path id="Path_25322" data-name="Path 25322" d="M177.277,72.98c-5.845,12.6,17.571,23.936,17.571,23.936l-.809-13.61Z" fill="#263238"/>
        <path id="Path_25323" data-name="Path 25323" d="M206.542,63.253l12.212-7.97c-13.075-10.268-28.948-3.268-28.948-3.268Z" fill="#263238"/>
        <path id="Path_25324" data-name="Path 25324" d="M189.917,63.263c-.037-.025-.075-.048-.114-.07a1.707,1.707,0,1,0-1.663,2.982c5.505,3.25,22.484,13.28,22.993,13.45.608.2,1.384-2.228,1.384-2.228l-22.6-14.134" fill="#263238"/>
        <path id="Path_25325" data-name="Path 25325" d="M161.872,52.546a7.234,7.234,0,1,1,7.239,7.234,7.234,7.234,0,0,1-7.239-7.234" fill="#fafafa"/>
        <path id="Path_25326" data-name="Path 25326" d="M161.873,52.554a1.642,1.642,0,0,1-.025-.464,5.684,5.684,0,0,1,.16-1.325,7.2,7.2,0,0,1,2.618-4.1,7.317,7.317,0,0,1,3.11-1.418,7.427,7.427,0,0,1,3.914.3,7.444,7.444,0,0,1,0,14.014,7.427,7.427,0,0,1-3.914.3,7.3,7.3,0,0,1-3.11-1.419,7.2,7.2,0,0,1-2.618-4.1,5.691,5.691,0,0,1-.16-1.325,1.642,1.642,0,0,1,.025-.464c.057,0,.025.643.319,1.743a7.214,7.214,0,0,0,2.643,3.869,7.044,7.044,0,0,0,6.658.969,7.013,7.013,0,0,0,0-13.164,7.044,7.044,0,0,0-6.657.969,7.207,7.207,0,0,0-2.644,3.869c-.293,1.1-.262,1.743-.319,1.743" fill="#263238"/>
        <path id="Path_25327" data-name="Path 25327" d="M153.067,57.375a3.849,3.849,0,0,1,.017-1,10.053,10.053,0,0,1,.128-1.161c.072-.45.131-.968.272-1.525a24.418,24.418,0,0,1,1.177-3.86A25.5,25.5,0,0,1,160,41.559a24.137,24.137,0,0,1,3.034-2.661c.449-.358.9-.625,1.277-.876a9.756,9.756,0,0,1,1-.6,3.885,3.885,0,0,1,.9-.426c.046.081-1.2.763-2.973,2.172a27.506,27.506,0,0,0-2.918,2.7,27.292,27.292,0,0,0-6.507,11.9c-.556,2.2-.663,3.609-.756,3.6" fill="#263238"/>
        <path id="Path_25328" data-name="Path 25328" d="M155.015,58.413a4,4,0,0,1,.021-1.013,10.184,10.184,0,0,1,.132-1.181c.079-.458.135-.985.279-1.551a24.947,24.947,0,0,1,1.2-3.926,26.15,26.15,0,0,1,5.4-8.428,24.892,24.892,0,0,1,3.07-2.724c.455-.367.908-.641,1.292-.9a10.288,10.288,0,0,1,1.018-.613,4.045,4.045,0,0,1,.912-.442c.048.081-1.209.784-3.009,2.23a28.013,28.013,0,0,0-9.546,14.883c-.562,2.237-.676,3.674-.77,3.665" fill="#263238"/>
        <path id="Path_25329" data-name="Path 25329" d="M382.785,381.059l-9.76-.287c-7.966.178-13.245-3.889-16.857-9.816a12.493,12.493,0,0,1-2.091-5.476c-.327-4.623,3.685-8.707,3.418-13.333-.314-5.472-6.308-9-7.668-14.306-1.188-4.643,1.428-9.537.661-14.268-.471-2.914-2.171-5.451-3.557-8.056a41.148,41.148,0,0,1-4.747-21.236,47.4,47.4,0,0,1,11.916,22,13.323,13.323,0,0,0,1.62,4.658c1.783,2.6,5.361,3.4,7.369,5.833,3.411,4.136.777,10.6,2.793,15.571,1.239,3.068,4.07,5.135,6.439,7.446s4.489,5.517,3.68,8.726Z" fill="#b4c1ef"/>
      </g>
    </g>
    <g id="Group_10330" data-name="Group 10330">
      <g id="Group_10329" data-name="Group 10329" clip-path="url(#clip-path-2)">
        <path id="Path_25330" data-name="Path 25330" d="M384.77,381.321s.234-.014.683,0a12.671,12.671,0,0,0,1.983-.2,17.066,17.066,0,0,0,3.122-.866,13.424,13.424,0,0,0,3.81-2.178,5.239,5.239,0,0,0,1.5-2.063,9.924,9.924,0,0,0,.4-2.84,28.53,28.53,0,0,1,.187-3.2,9.011,9.011,0,0,1,1.192-3.27c1.163-2.086,3.007-3.992,3.556-6.615.615-2.6.125-5.456-.363-8.392-.481-2.913-.978-6.207.155-9.395,1.058-3.156,3.171-5.937,4.164-9.263,1-3.343.489-7.02.681-10.786a15.015,15.015,0,0,1,1.275-5.626c.8-1.788,1.885-3.43,2.7-5.2,1.648-3.563,1.93-7.663,2.373-11.762q.327-3.093.657-6.244a30.984,30.984,0,0,1,1.063-6.351,55.157,55.157,0,0,1,2.318-6.118,19.586,19.586,0,0,0,1.077-3.05,31.989,31.989,0,0,0,.282-3.257,39.1,39.1,0,0,0-.3-6.649c-.275-2.226-.7-4.459-.954-6.742-.015-.134-.031-.27-.045-.394l.451.246a14.441,14.441,0,0,0-5.008,4.279,23.308,23.308,0,0,0-3.11,5.809c-1.578,4.116-2.141,8.467-2.946,12.689-.787,4.215-1.834,8.422-4.034,12.022-1.088,1.788-2.389,3.384-3.488,5.054a13.241,13.241,0,0,0-2.314,5.341c-.564,3.84,1.712,7.473,1.265,11.374a13.227,13.227,0,0,1-1.832,5.282c-.9,1.594-1.947,3.051-2.926,4.5a28.152,28.152,0,0,0-2.565,4.427,13.785,13.785,0,0,0-1.15,4.734c-.232,3.215.239,6.345,0,9.356a21.9,21.9,0,0,1-2.447,8.175c-1.188,2.422-2.5,4.592-3.6,6.686a33.925,33.925,0,0,0-1.471,3.077,15.1,15.1,0,0,0-.846,3.016,19.346,19.346,0,0,0-.093,5.49,14.126,14.126,0,0,0,2.689,7.039,12.321,12.321,0,0,0,1.9,1.858s-.2-.123-.561-.388a3.86,3.86,0,0,1-.643-.54,6.731,6.731,0,0,1-.8-.85,14.036,14.036,0,0,1-2.832-7.089,19.46,19.46,0,0,1,.04-5.569,15.149,15.149,0,0,1,.839-3.089,34.3,34.3,0,0,1,1.462-3.119c1.087-2.114,2.388-4.292,3.555-6.7a21.552,21.552,0,0,0,2.363-8.033c.223-2.949-.262-6.066-.042-9.359a14.253,14.253,0,0,1,1.172-4.9,28.561,28.561,0,0,1,2.593-4.516c.98-1.458,2.014-2.91,2.891-4.476a12.646,12.646,0,0,0,1.751-5.074c.453-3.655-1.842-7.268-1.288-11.4a13.8,13.8,0,0,1,2.389-5.576c1.123-1.7,2.407-3.294,3.467-5.04,2.13-3.5,3.164-7.624,3.942-11.824.8-4.2,1.36-8.6,2.966-12.8a23.912,23.912,0,0,1,3.2-5.965,15.04,15.04,0,0,1,5.228-4.463l.4-.2.053.45c.014.123.03.256.046.388.252,2.255.673,4.486.952,6.737a39.49,39.49,0,0,1,.3,6.753,31.446,31.446,0,0,1-.3,3.357,19.955,19.955,0,0,1-1.114,3.16,55.065,55.065,0,0,0-2.3,6.054,30.477,30.477,0,0,0-1.049,6.246q-.336,3.153-.665,6.239c-.45,4.086-.733,8.254-2.444,11.942-.845,1.822-1.93,3.458-2.71,5.189a14.453,14.453,0,0,0-1.24,5.425c-.2,3.685.313,7.418-.733,10.9-1.046,3.447-3.171,6.213-4.2,9.272-1.1,3.055-.646,6.238-.176,9.169s.965,5.851.313,8.552c-.6,2.747-2.5,4.671-3.64,6.7a8.7,8.7,0,0,0-1.174,3.144,27.8,27.8,0,0,0-.21,3.158,10.12,10.12,0,0,1-.444,2.918,5.475,5.475,0,0,1-1.6,2.157,13.507,13.507,0,0,1-3.9,2.167,16.471,16.471,0,0,1-3.166.815,7.751,7.751,0,0,1-2.687.074" fill="#263238"/>
        <path id="Path_25331" data-name="Path 25331" d="M414.941,266.177a1.139,1.139,0,0,1-.03.308l-.149.892c-.148.784-.329,1.933-.658,3.421-.346,1.495-1.194,3.155-1.9,5.169-.74,2.006-1.482,4.327-2.181,6.927s-1.315,5.486-1.964,8.593a36.359,36.359,0,0,1-3.061,9.7c-.791,1.607-1.668,3.208-2.348,4.923a22.5,22.5,0,0,0-1.322,5.471,111.6,111.6,0,0,1-2.032,11.866c-1.93,8.01-3.767,15.638-5.441,22.586-1.751,6.909-3.323,13.135-4.651,18.384l-3.194,12.38q-.572,2.135-.9,3.358l-.249.869a1.158,1.158,0,0,1-.1.292A1.139,1.139,0,0,1,384.8,381c.049-.236.112-.526.188-.885q.283-1.239.784-3.387c.719-2.986,1.738-7.219,2.994-12.429,1.291-5.258,2.82-11.5,4.52-18.417,1.657-6.944,3.477-14.572,5.389-22.58a113.07,113.07,0,0,0,2.036-11.817,23,23,0,0,1,1.374-5.607c.706-1.758,1.6-3.369,2.387-4.958a36.171,36.171,0,0,0,3.07-9.549c.671-3.1,1.325-5.991,2.045-8.6a72.77,72.77,0,0,1,2.281-6.935c.749-2.02,1.624-3.662,2-5.109.359-1.451.581-2.613.769-3.382.086-.358.155-.646.211-.881a1.165,1.165,0,0,1,.093-.295" fill="#263238"/>
        <path id="Path_25332" data-name="Path 25332" d="M386.486,381.045c-4.483.3-12.9-3.073-13.824-7.474-.572-2.73.082-5.612-.549-8.331-.812-3.5-3.62-6.21-4.819-9.6-2.416-6.829,2.184-14.31,1.143-21.479-.741-5.1-4.251-9.416-5.385-14.445-1.337-5.939.75-12.3-.9-18.162-.877-3.114-2.752-5.846-3.926-8.86-1.533-3.932-1.831-8.22-2.111-12.432-.289-4.328-.531-8.66-.867-12.985-.563-7.236-4.436-13.537-4.656-16.837-.614-9.192,1.146-13.852,2.154-20.646,7.109,3.89,10.2,12.434,11.566,20.423s1.663,16.419,5.552,23.528c2.54,4.64,6.623,8.813,6.893,14.1.22,4.308-2.21,8.385-2.234,12.7-.04,7.692,7.3,13.446,9.123,20.921,1.352,5.54-.471,11.369.112,17.04.76,7.379,5.45,13.671,8.148,20.579s.934,18.418-5.419,22.243" fill="#dee3fc"/>
        <path id="Path_25333" data-name="Path 25333" d="M354.543,236.522a1.72,1.72,0,0,1,.093.374l.211,1.1c.19.965.406,2.419.78,4.244.393,1.822,1.4,3.9,2.222,6.451.862,2.526,1.711,5.455,2.487,8.726s1.433,6.9,2.115,10.784c.71,3.876,1.408,8.044,3.353,12.029.906,2.015,1.934,4.057,2.722,6.271a28.513,28.513,0,0,1,1.43,7.018,140.963,140.963,0,0,0,1.96,14.789c1.991,10.044,3.887,19.611,5.613,28.319,1.785,8.686,3.392,16.512,4.744,23.1,1.322,6.549,2.395,11.862,3.146,15.583.351,1.811.622,3.232.822,4.243.083.459.15.825.2,1.107a1.692,1.692,0,0,1,.046.382,1.775,1.775,0,0,1-.109-.369c-.066-.28-.152-.641-.261-1.093-.222-1.008-.539-2.42-.938-4.221-.8-3.712-1.94-9.011-3.339-15.543-1.393-6.579-3.043-14.4-4.876-23.07-1.742-8.712-3.656-18.281-5.665-28.329a138.975,138.975,0,0,1-1.953-14.836,28.125,28.125,0,0,0-1.384-6.88c-.767-2.169-1.78-4.2-2.687-6.235-1.955-4.045-2.653-8.314-3.336-12.176-.661-3.893-1.3-7.5-2.036-10.775s-1.558-6.186-2.386-8.715c-.786-2.537-1.762-4.637-2.129-6.508-.342-1.86-.515-3.3-.666-4.278-.063-.463-.112-.83-.151-1.115a1.886,1.886,0,0,1-.03-.383" fill="#263238"/>
      </g>
    </g>
    <rect id="Rectangle_1533" data-name="Rectangle 1533" width="6.58" height="21.256" transform="translate(66.747 232.766)" fill="#7e89fd"/>
    <rect id="Rectangle_1534" data-name="Rectangle 1534" width="6.58" height="30.004" transform="translate(54.637 224.018)" fill="#7e89fd"/>
    <rect id="Rectangle_1535" data-name="Rectangle 1535" width="6.58" height="34.089" transform="translate(41.747 219.933)" fill="#7e89fd"/>
    <rect id="Rectangle_1536" data-name="Rectangle 1536" width="6.58" height="38.398" transform="translate(28.857 215.624)" fill="#7e89fd"/>
    <g id="Group_10334" data-name="Group 10334">
      <g id="Group_10333" data-name="Group 10333" clip-path="url(#clip-path-2)">
        <path id="Path_25334" data-name="Path 25334" d="M295.117,260.336c.013.042-.518.131-1.354.562a5.97,5.97,0,0,0-2.658,2.835A5.831,5.831,0,1,0,300.2,261.7a5.961,5.961,0,0,0-3.614-1.426c-.941-.031-1.457.113-1.464.07a4.543,4.543,0,0,1,1.469-.2,5.944,5.944,0,0,1,3.765,1.375,6.006,6.006,0,0,1,1.7,2.246,6.117,6.117,0,0,1,.462,3.2,6.117,6.117,0,0,1-1.454,3.257,6.125,6.125,0,0,1-10.748-3.824,6.022,6.022,0,0,1,.576-2.755,5.96,5.96,0,0,1,2.818-2.853,4.515,4.515,0,0,1,1.414-.443" fill="#263238"/>
        <path id="Path_25335" data-name="Path 25335" d="M290.32,253.959a1.686,1.686,0,0,1-.012-.225c0-.159-.01-.371-.01-.646-.007-.581-.015-1.416-.024-2.5v-.043l.043-.011,5.433-1.251.068-.015.03.063c.442.92.932,1.942,1.457,3.036l-.086-.057a13.8,13.8,0,0,1,3.611.616l-.113.027,2.382-2.385.069-.068.083.053,4.716,2.972.092.059-.037.1c-.347.983-.73,2.066-1.123,3.176l-.03-.142a13.7,13.7,0,0,1,2.121,3l-.131-.079h3.491l.027.12L313.6,265.2l.029.125-.116.056-3.042,1.447.093-.14a13.948,13.948,0,0,1-.629,3.624l-.041-.167,2.38,2.386.094.094-.072.113c-.944,1.494-1.956,3.091-2.981,4.712l-.074.116-.128-.046-3.176-1.129.174-.036a13.875,13.875,0,0,1-3.006,2.118l.092-.153v3.505l-.134.032-5.441,1.218-.133.03-.058-.123-1.443-3.044.145.1a13.748,13.748,0,0,1-3.625-.632l.167-.041-2.39,2.376-.093.092-.108-.069-4.707-2.989-.108-.068.042-.118q.578-1.617,1.135-3.175l.031.156a13.834,13.834,0,0,1-2.112-3.007l.131.08-3.368-.014h-.115l-.025-.111c-.425-1.914-.828-3.721-1.209-5.443l-.024-.1.1-.045,3.046-1.439-.07.108a13.694,13.694,0,0,1,.639-3.612l.027.115-2.368-2.4-.059-.057.043-.069,3-4.7.034-.054.058.022,3.167,1.15-.057.012a13.378,13.378,0,0,1,2.21-1.635c.261-.153.462-.258.595-.325a1.653,1.653,0,0,1,.2-.093,1.491,1.491,0,0,1-.19.117l-.581.35a14.147,14.147,0,0,0-2.164,1.667l-.024.022-.032-.01-3.182-1.11.091-.032c-.837,1.337-1.815,2.9-2.963,4.724l-.014-.125,2.386,2.38.047.047-.02.066a13.641,13.641,0,0,0-.609,3.552v.075L283,265.7l-3.039,1.453.071-.146c.391,1.719.8,3.523,1.232,5.437l-.139-.11h3.458l.042.078a13.524,13.524,0,0,0,2.075,2.937l.063.068-.031.088-1.127,3.177-.063-.186,4.713,2.978-.2.023,2.387-2.381.071-.07.1.029a13.5,13.5,0,0,0,3.538.614h.1l.045.092,1.445,3.043-.191-.093,5.441-1.221-.134.167v-3.368l.093-.155a13.5,13.5,0,0,0,2.932-2.064l.075-.072.1.036,3.175,1.13-.2.07,2.986-4.709.023.209-2.376-2.39-.071-.071.029-.1a13.528,13.528,0,0,0,.619-3.537v-.1l.09-.042,3.043-1.443-.087.18c-.421-1.891-.833-3.734-1.214-5.442l.149.12-3.368-.012h-.09l-.042-.079a13.528,13.528,0,0,0-2.066-2.944l-.059-.062.028-.08c.4-1.11.786-2.193,1.137-3.174l.056.159-4.7-3,.152-.015-2.395,2.37-.049.049-.065-.021a13.645,13.645,0,0,0-3.55-.63h-.062l-.025-.056-1.433-3.048.1.048-5.448,1.188.042-.053c-.015,1.094-.027,1.936-.035,2.521-.006.271-.013.479-.013.636a1.346,1.346,0,0,1-.014.211" fill="#263238"/>
        <path id="Path_25336" data-name="Path 25336" d="M300.6,207.863l6.014-1.348,1.6,3.363a15.094,15.094,0,0,1,3.959.69l2.641-2.629,5.206,3.3-1.25,3.512a15.079,15.079,0,0,1,2.317,3.29l3.724.008,1.349,6.015-3.364,1.6a15.1,15.1,0,0,1-.69,3.96l2.63,2.64-3.3,5.206-3.51-1.249a15.089,15.089,0,0,1-3.285,2.313l-.008,3.726-6.015,1.349-1.6-3.364a15.086,15.086,0,0,1-3.959-.689l-2.641,2.628-5.206-3.3,1.25-3.511a15,15,0,0,1-2.315-3.284l-3.724-.008-1.35-6.015,3.364-1.6a15.134,15.134,0,0,1,.689-3.96l-2.628-2.64,3.3-5.207,3.509,1.249a15.158,15.158,0,0,1,3.285-2.313Zm5.292,10.809h0a6.612,6.612,0,0,0-5,7.9h0a6.613,6.613,0,1,0,5.005-7.9" fill="#dee3fc" fill-rule="evenodd"/>
        <path id="Path_25337" data-name="Path 25337" d="M322.347,244.855l3.5-.785.93,1.958a8.8,8.8,0,0,1,2.3.4l1.539-1.531,3.03,1.92-.728,2.044a8.8,8.8,0,0,1,1.348,1.913h2.168l.784,3.5-1.958.931a8.817,8.817,0,0,1-.4,2.3l1.53,1.537-1.92,3.031-2.044-.728a8.778,8.778,0,0,1-1.913,1.348v2.168l-3.5.784-.93-1.958a8.844,8.844,0,0,1-2.3-.4l-1.537,1.529-3.031-1.92.728-2.044a8.754,8.754,0,0,1-1.348-1.913h-2.167l-.786-3.5,1.959-.931a8.85,8.85,0,0,1,.4-2.3l-1.529-1.537,1.921-3.031,2.043.728a8.74,8.74,0,0,1,1.913-1.347Zm3.087,6.287h0a3.85,3.85,0,1,0,4.6,2.913,3.85,3.85,0,0,0-4.6-2.913" fill="#dee3fc" fill-rule="evenodd"/>
        <path id="Path_25338" data-name="Path 25338" d="M118.444,170.259c-.643-1.705-3.074-2.1-4.659-1.205a8.3,8.3,0,0,0-3.165,4.335,13.935,13.935,0,0,1-2.583,4.779c-1.309,1.322-3.225,2.006-4.309,3.522-1.671,2.337-.709,5.625.724,8.111s3.338,4.916,3.461,7.786c.077,1.854-.608,3.652-.723,5.5a9.218,9.218,0,0,0,6.668,9.2" fill="#002c54"/>
        <path id="Path_25339" data-name="Path 25339" d="M121.895,184.347a21.285,21.285,0,0,0,12.021,29.82c2.6.9,5.489,1.349,7.546,3.178,1.569,1.4,2.423,3.407,3.651,5.113s3.186,3.227,5.25,2.827c1.577-.305,2.833-1.673,4.439-1.781s2.97,1.061,4.414,1.77a8.411,8.411,0,0,0,10.252-2.648c1.117-1.6,1.757-3.705,3.517-4.583s3.864-.113,5.828-.225a6.517,6.517,0,0,0,.907-.167,6.726,6.726,0,0,0,4.846-8.183c-.457-1.445-1.434-2.79-1.334-4.3.108-1.653,1.454-2.907,2.39-4.274a9.962,9.962,0,0,0-2.958-13.607c-2.367-1.426-5.378-1.852-7.278-3.852-1.953-2.056-2.172-5.142-2.505-7.956a22.368,22.368,0,0,0-2.58-8.824,10.355,10.355,0,0,0-7.257-5.232c-2.283-.295-4.689.388-6.865-.369-2.478-.862-3.952-3.313-5.778-5.192a15.416,15.416,0,0,0-13.281-4.4c-3.307.533-6.56,2.341-8.092,5.32s-.848,7.143,1.979,8.938" fill="#002c54"/>
        <path id="Path_25340" data-name="Path 25340" d="M148.777,163.315c7.682-.83,12.814,8.618,13.314,16.328.557,8.565.9,19.044-.1,25.439-2.012,12.856-11.86,14.514-11.86,14.514,0-.062.01,4.24-.153,15.7-.1,6.866-.345,10.684-8.145,10.866-7.72.178-18.26-3.873-18.372-11.082l-2.7-61.052a4.523,4.523,0,0,1,4.035-4.594Z" fill="#ffbe9d"/>
        <path id="Path_25341" data-name="Path 25341" d="M159.255,187.968c0-.012,0-.024,0-.037a1.578,1.578,0,0,0-1.7-1.446,1.649,1.649,0,0,0-1.584,1.667l0,.036a1.577,1.577,0,0,0,1.7,1.447,1.648,1.648,0,0,0,1.586-1.667" fill="#263238"/>
        <path id="Path_25342" data-name="Path 25342" d="M159.825,185.1c.1-.1-.085-.483-.632-.9a4.335,4.335,0,0,0-2.571-.823,4.518,4.518,0,0,0-2.612.812c-.567.416-.779.8-.679.9.193.218,1.492-.7,3.264-.682,1.774-.006,3.029.915,3.229.7" fill="#263238"/>
        <path id="Path_25343" data-name="Path 25343" d="M141.575,187.972l0-.035a1.579,1.579,0,0,0-1.7-1.448,1.648,1.648,0,0,0-1.583,1.667c0,.013,0,.025,0,.039a1.576,1.576,0,0,0,1.7,1.444,1.65,1.65,0,0,0,1.585-1.671" fill="#263238"/>
        <path id="Path_25344" data-name="Path 25344" d="M142.392,185.466c.1-.1-.087-.483-.632-.9a4.352,4.352,0,0,0-2.571-.824,4.524,4.524,0,0,0-2.612.813c-.569.416-.773.8-.679.9.192.218,1.492-.7,3.264-.682,1.772-.006,3.029.915,3.229.7" fill="#263238"/>
        <path id="Path_25345" data-name="Path 25345" d="M148.862,198.613a11.553,11.553,0,0,0,2.92-.011,3.031,3.031,0,0,0,.769-.109,1.136,1.136,0,0,0,.743-.663,2.622,2.622,0,0,0-.239-1.778q-.615-1.651-1.29-3.467c-1.871-4.906-3.55-8.821-3.748-8.749s1.158,4.109,3.028,9.014q.705,1.8,1.348,3.447a2.3,2.3,0,0,1,.3,1.341c-.075.308-.5.4-.956.448a11.662,11.662,0,0,0-2.88.526" fill="#263238"/>
        <path id="Path_25346" data-name="Path 25346" d="M150.128,222.876c-12.86,1.229-17.222-7.831-17.222-7.831a32.708,32.708,0,0,0,17.222,4.554Z" fill="#eb996e"/>
        <path id="Path_25347" data-name="Path 25347" d="M148.2,202.95a.6.6,0,0,1,0,.66,1.979,1.979,0,0,1-.505.527,6.749,6.749,0,0,1-2.268,1.354,2.143,2.143,0,0,1-2.326-.581,1.849,1.849,0,0,1,.136-2.116,2.908,2.908,0,0,1,2.013-1.085,3.191,3.191,0,0,1,2.867,1.179" fill="#e8505b"/>
        <path id="Path_25348" data-name="Path 25348" d="M143.637,199.846c-.131-.011-.345.467-.27,1.271a4.172,4.172,0,0,0,1.509,2.743,4.788,4.788,0,0,0,3.1,1.073c.866-.026,1.349-.279,1.322-.4-.016-.269-2.068-.053-3.716-1.416s-1.659-3.289-1.948-3.271" fill="#263238"/>
        <path id="Path_25349" data-name="Path 25349" d="M143.183,182.362c.075-.23-.31-.607-1.076-.913a7.046,7.046,0,0,0-6.144.692c-.678.468-.97.922-.846,1.129.277.431,1.953-.181,4.039-.4,2.079-.256,3.851-.032,4.026-.514" fill="#263238"/>
        <path id="Path_25350" data-name="Path 25350" d="M159.165,179.971c.137-.2-.034-.611-.555-1.024a4.348,4.348,0,0,0-4.837-.139c-.543.382-.738.79-.612.99.287.421,1.532.076,3,.144,1.466.016,2.688.428,3,.028" fill="#263238"/>
        <path id="Path_25351" data-name="Path 25351" d="M130.967,164.109a5.946,5.946,0,0,1,4.66,3.972,5.766,5.766,0,0,1-1.577,5.844c-1.887,1.739-5.009,2.363-5.921,4.739-.7,1.827.295,3.842,1.438,5.443s2.516,3.214,2.659,5.161c.273,3.777-4.18,6.847-3.563,10.585.4,2.4,2.713,3.945,4.362,5.762a9.825,9.825,0,0,1,2.677,7.76,7.216,7.216,0,0,1-5.285,6.026c-2.355.535-4.786-.293-7.055-1.109-2.906-1.047-5.882-2.13-8.237-4.1s-4-5.041-3.38-8.009c.562-2.69,2.869-5,2.636-7.738-.246-2.908-3.2-4.8-4.6-7.372a7.671,7.671,0,0,1,1.775-9.274c1.677-1.413,4.041-2.206,5-4.154,1-2.047.024-4.461.1-6.731.115-3.494,2.957-6.583,6.386-7.568a12.48,12.48,0,0,1,10.188,1.908" fill="#002c54"/>
        <path id="Path_25352" data-name="Path 25352" d="M130.982,163.187c2.606-2.564,5.947-5.147,9.541-4.464,1.846.35,3.438,1.533,5.26,1.993,2.467.621,5.072-.138,7.6.121a9.64,9.64,0,0,1,7.342,4.87c1.139,2.079,1.565,4.67,3.409,6.158a31.893,31.893,0,0,0,2.845,1.657,8.762,8.762,0,0,1,3.364,4.829,26.039,26.039,0,0,1,.882,5.926c-2.222.66-4.434-1.038-5.908-2.824s-2.862-3.91-5.084-4.569c-2.875-.853-6.478.993-8.744-.974-1.586-1.376-1.66-4.071-3.448-5.171-1.7-1.051-3.851-.059-5.815.3a8.79,8.79,0,0,1-10.375-8.683" fill="#002c54"/>
        <path id="Path_25353" data-name="Path 25353" d="M108.376,193.082a.886.886,0,0,1-.244-.333,2.247,2.247,0,0,1-.233-1.165,3.425,3.425,0,0,1,.653-1.766,4.521,4.521,0,0,1,1.993-1.5,18.4,18.4,0,0,1,2.863-.836,7.984,7.984,0,0,0,3.016-1.28,4.056,4.056,0,0,0,1.462-3.1,38.3,38.3,0,0,0-.209-3.992,9.608,9.608,0,0,1,.112-2.1,4.668,4.668,0,0,1,.864-1.9,6.818,6.818,0,0,1,3.324-1.9,11.6,11.6,0,0,0,5.368-3.067,11.444,11.444,0,0,0,2.343-3.492c.392-.923.52-1.471.565-1.459a1.318,1.318,0,0,1-.058.4,7.712,7.712,0,0,1-.329,1.125,11.1,11.1,0,0,1-4.594,5.559,13.9,13.9,0,0,1-3.151,1.358,6.469,6.469,0,0,0-3.094,1.776,4.233,4.233,0,0,0-.758,1.687,9.354,9.354,0,0,0-.1,1.978,35.985,35.985,0,0,1,.2,4.047,4.509,4.509,0,0,1-1.666,3.438,8.262,8.262,0,0,1-3.2,1.319,19.164,19.164,0,0,0-2.826.761,3.733,3.733,0,0,0-2.588,2.957,2.773,2.773,0,0,0,.286,1.482" fill="#455a64"/>
        <path id="Path_25354" data-name="Path 25354" d="M184.083,201.1a2.042,2.042,0,0,0,.606-.632,2.513,2.513,0,0,0-.339-2.39,3.189,3.189,0,0,0-1.323-1.209,17.838,17.838,0,0,0-2.054-.822,6.593,6.593,0,0,1-2.28-1.256,4.94,4.94,0,0,1-1.358-2.588c-.235-1-.31-2.06-.491-3.13a6.447,6.447,0,0,0-1.225-3.056c-1.412-1.855-3.84-2.88-5.779-4.8a9.345,9.345,0,0,1-2.128-3.568,23.77,23.77,0,0,1-.941-4.2,39.736,39.736,0,0,0-.779-4.318,11.88,11.88,0,0,0-1.836-4.029,5.773,5.773,0,0,0-3.582-2.322,13.187,13.187,0,0,0-4.315.109,16.54,16.54,0,0,1-4.307.232,6.07,6.07,0,0,1-2.044-.632,6.388,6.388,0,0,1-1.642-1.287,28.2,28.2,0,0,1-2.327-3.151,9.053,9.053,0,0,0-2.481-2.559,7.875,7.875,0,0,0-6.181-.9,6.931,6.931,0,0,0-4.132,3.129,8,8,0,0,0-1.155,3.828,7.347,7.347,0,0,0,.314,2.535c.172.562.31.844.285.855a4.307,4.307,0,0,1-.379-.825,6.907,6.907,0,0,1-.412-2.571,8.1,8.1,0,0,1,1.11-3.964,7.21,7.21,0,0,1,4.273-3.323,8.228,8.228,0,0,1,6.494.895c2.156,1.3,3.164,3.852,4.918,5.744a5.437,5.437,0,0,0,3.416,1.763,16.207,16.207,0,0,0,4.183-.244,13.615,13.615,0,0,1,4.476-.112,6.255,6.255,0,0,1,3.878,2.505c1.9,2.584,2.3,5.748,2.7,8.571a23.373,23.373,0,0,0,.909,4.117,8.9,8.9,0,0,0,2.008,3.4c1.829,1.848,4.279,2.9,5.779,4.869a6.819,6.819,0,0,1,1.275,3.24c.175,1.1.238,2.15.455,3.116a4.635,4.635,0,0,0,1.236,2.437,6.369,6.369,0,0,0,2.162,1.226,17.4,17.4,0,0,1,2.065.872,3.364,3.364,0,0,1,1.376,1.315,2.6,2.6,0,0,1,.262,2.539,1.427,1.427,0,0,1-.482.486.73.73,0,0,1-.211.1" fill="#455a64"/>
        <path id="Path_25355" data-name="Path 25355" d="M221.1,306.214H174.275l-23.982-45.061,11.2-19.57c17.3,8.962,31.327,45.916,31.327,45.916l22.8,2.089Z" fill="#467cdb"/>
      </g>
    </g>
    <g id="Group_10357" data-name="Group 10357">
      <g id="Group_10356" data-name="Group 10356" clip-path="url(#clip-path-2)">
        <path id="Path_25356" data-name="Path 25356" d="M206.612,300.027a35.311,35.311,0,0,1-4.265-7.134,35.172,35.172,0,0,1,4.265,7.134" fill="#fafafa"/>
        <path id="Path_25357" data-name="Path 25357" d="M190.46,299.577a34.9,34.9,0,0,1,5.187-6.454,35.047,35.047,0,0,1-5.187,6.454" fill="#fafafa"/>
        <path id="Path_25358" data-name="Path 25358" d="M187.654,291.1a18.282,18.282,0,0,1,0-5.978,18.227,18.227,0,0,1,0,5.978" fill="#fafafa"/>
        <path id="Path_25359" data-name="Path 25359" d="M195.678,304.318c-.074-.112.781-.8,1.911-1.543a6.3,6.3,0,0,1,2.18-1.131c.074.113-.781.8-1.91,1.543a6.274,6.274,0,0,1-2.181,1.131" fill="#fafafa"/>
        <path id="Path_25360" data-name="Path 25360" d="M182.587,270.349a39.461,39.461,0,0,1,3.6,8.033,39.4,39.4,0,0,1-3.6-8.033" fill="#fafafa"/>
        <path id="Path_25361" data-name="Path 25361" d="M173.347,255.374a6.411,6.411,0,0,1,2.117,1.3c1.088.824,1.9,1.579,1.821,1.687a6.391,6.391,0,0,1-2.117-1.3c-1.088-.824-1.9-1.58-1.821-1.687" fill="#fafafa"/>
        <path id="Path_25362" data-name="Path 25362" d="M131.657,328.824l-9.347-1.458a23.223,23.223,0,0,1-19.269-18.788l-7.2-46.414a16.155,16.155,0,0,1,31.645-6.361L139.245,303.3Z" fill="#467cdb"/>
        <path id="Path_25363" data-name="Path 25363" d="M102.19,240.72c-.013-.013.06-.1.211-.261a5.992,5.992,0,0,1,.713-.647,8.949,8.949,0,0,1,3.186-1.539,11.2,11.2,0,0,1,5.248-.068,13.822,13.822,0,0,1,5.713,2.931,20.644,20.644,0,0,1,4.181,4.871,35.342,35.342,0,0,1,2.417,4.635c.593,1.359,1.024,2.482,1.312,3.259a6.354,6.354,0,0,1,.4,1.227,6.547,6.547,0,0,1-.575-1.155c-.342-.754-.821-1.852-1.451-3.188-1.278-2.629-3.153-6.383-6.6-9.271a13.749,13.749,0,0,0-5.5-2.869,11.181,11.181,0,0,0-5.062-.035,10.612,10.612,0,0,0-4.194,2.108" fill="#263238"/>
        <path id="Path_25364" data-name="Path 25364" d="M168.806,251.4a2.329,2.329,0,0,1,.4.375c.247.261.622.636,1.076,1.146.918,1.012,2.206,2.513,3.665,4.477a46.909,46.909,0,0,1,8.226,17.137c1.655,7.312,1.676,14.118,1.868,18.974.073,2.388.135,4.342.179,5.772.019.638.034,1.157.046,1.57a2.292,2.292,0,0,1-.016.549,2.317,2.317,0,0,1-.083-.544c-.038-.411-.082-.93-.138-1.564-.105-1.361-.22-3.332-.337-5.769-.278-4.855-.358-11.638-2-18.879a48.523,48.523,0,0,0-8.028-17.042c-1.415-1.976-2.658-3.508-3.528-4.556-.4-.485-.741-.884-1.005-1.2a2.257,2.257,0,0,1-.329-.442" fill="#263238"/>
        <path id="Path_25365" data-name="Path 25365" d="M93.452,251.3c-1.586,10.443,4.683,25.64,6.093,34.735l16.518,22.484L121.02,340.1,185.048,322l-1.478-31.177a74.13,74.13,0,0,0-1.372-16.445,38.1,38.1,0,0,0-6.165-13.568l-4.976-7.068-9.563-12.158-7.326-2.561c-.446-5.082-1.15-12.708-1.408-13.193-.387-.733-30.989-5.614-31.31-3.661-.227,1.39-1.266,7.972-1.846,11.651-6.07,1.48-13.726,3.445-15.315,4.309-4.857,2.646-9.547,4.684-10.837,13.175" fill="#467cdb"/>
        <path id="Path_25366" data-name="Path 25366" d="M148.1,240a9.935,9.935,0,0,1,.08-2.2c.112-1.355.3-3.22.539-5.279q.189-1.525.356-2.9c.108-.893.255-1.692.272-2.347a3.053,3.053,0,0,0-.271-1.5c-.172-.316-.323-.467-.31-.488s.225.066.472.387a2.874,2.874,0,0,1,.456,1.6,20.29,20.29,0,0,1-.169,2.4c-.1.911-.206,1.882-.317,2.9-.238,2.062-.482,3.918-.682,5.262A9.912,9.912,0,0,1,148.1,240" fill="#263238"/>
        <path id="Path_25367" data-name="Path 25367" d="M139.933,238.072c-.145-.039.708-3.109,1.055-7,.371-3.889.094-7.063.245-7.075a7.321,7.321,0,0,1,.308,2.069,31.714,31.714,0,0,1-.926,10.027,7.374,7.374,0,0,1-.682,1.98" fill="#263238"/>
        <path id="Path_25368" data-name="Path 25368" d="M124.741,235.861a6.283,6.283,0,0,1-.459-2.05,17.871,17.871,0,0,1,1.716-9.9,6.364,6.364,0,0,1,1.122-1.779,24.055,24.055,0,0,0-2.38,13.731" fill="#263238"/>
        <path id="Path_25369" data-name="Path 25369" d="M168.216,263.633a30.2,30.2,0,0,1-2.9-3.673,30.36,30.36,0,0,1-2.714-3.813,29.354,29.354,0,0,1,5.615,7.486" fill="#fafafa"/>
        <path id="Path_25370" data-name="Path 25370" d="M153.8,251.9a30.583,30.583,0,0,1,4.7-6.15,30.584,30.584,0,0,1-4.7,6.15" fill="#fafafa"/>
        <path id="Path_25371" data-name="Path 25371" d="M138.723,244.532a22.512,22.512,0,0,1,6.136,5.979q-3.18-2.874-6.136-5.979" fill="#fafafa"/>
        <path id="Path_25372" data-name="Path 25372" d="M142.956,235.547a17.814,17.814,0,0,1,4.377-3.964,17.853,17.853,0,0,1-4.377,3.964" fill="#fafafa"/>
        <path id="Path_25373" data-name="Path 25373" d="M129.753,228.5a22.3,22.3,0,0,1,6.458,1.383,22.351,22.351,0,0,1-6.46-1.383" fill="#fafafa"/>
        <path id="Path_25374" data-name="Path 25374" d="M127.108,249.411a22.4,22.4,0,0,1,.334-6.607,22.367,22.367,0,0,1-.334,6.607" fill="#fafafa"/>
        <path id="Path_25375" data-name="Path 25375" d="M131.925,259.466a35.2,35.2,0,0,1,2.845-7.805,35.319,35.319,0,0,1-2.845,7.805" fill="#fafafa"/>
        <path id="Path_25376" data-name="Path 25376" d="M145,266.554a39.2,39.2,0,0,1,3.175-8.17,39.125,39.125,0,0,1-3.175,8.17" fill="#fafafa"/>
        <path id="Path_25377" data-name="Path 25377" d="M157.317,274.588a34.059,34.059,0,0,1,1.64-8.01,34.182,34.182,0,0,1-1.64,8.01" fill="#fafafa"/>
        <path id="Path_25378" data-name="Path 25378" d="M171.944,274.908a32.933,32.933,0,0,1,3.514-7.212,32.734,32.734,0,0,1-3.514,7.212" fill="#fafafa"/>
        <path id="Path_25379" data-name="Path 25379" d="M172.26,284.287a39.419,39.419,0,0,1,7.885,3.9,39.446,39.446,0,0,1-7.885-3.9" fill="#fafafa"/>
        <path id="Path_25380" data-name="Path 25380" d="M172.08,299.127q.77-3.585,1.888-7.08a16.907,16.907,0,0,1-1.89,7.08" fill="#fafafa"/>
        <path id="Path_25381" data-name="Path 25381" d="M175.1,309.556a31.846,31.846,0,0,1,5.833-5.337,31.974,31.974,0,0,1-5.833,5.336" fill="#fafafa"/>
        <path id="Path_25382" data-name="Path 25382" d="M155.831,302.438a19.9,19.9,0,0,1,9.2,4.032c-.08.121-2.012-1.04-4.54-2.156s-4.7-1.734-4.661-1.876" fill="#fafafa"/>
        <path id="Path_25383" data-name="Path 25383" d="M161.467,297.269a25.2,25.2,0,0,1,2.308-6.626,25.153,25.153,0,0,1-2.308,6.626" fill="#fafafa"/>
        <path id="Path_25384" data-name="Path 25384" d="M150.032,284.506a55.966,55.966,0,0,1,5.585,8.86,55.8,55.8,0,0,1-5.585-8.86" fill="#fafafa"/>
        <path id="Path_25385" data-name="Path 25385" d="M137.749,285.731a51.774,51.774,0,0,1,2.715-4.54c1.5-2.5,2.6-4.593,2.728-4.532a29.113,29.113,0,0,1-5.443,9.072" fill="#fafafa"/>
        <path id="Path_25386" data-name="Path 25386" d="M130.39,273.608a24.029,24.029,0,0,1,3.618.147,23.617,23.617,0,0,1,3.615.212,14.483,14.483,0,0,1-7.233-.36" fill="#fafafa"/>
        <path id="Path_25387" data-name="Path 25387" d="M112.919,259.8a56.2,56.2,0,0,1,9.466,4.51,55.9,55.9,0,0,1-9.466-4.51" fill="#fafafa"/>
        <path id="Path_25388" data-name="Path 25388" d="M111.76,251.013a36.521,36.521,0,0,1-3.751-7.565,36.472,36.472,0,0,1,3.751,7.565" fill="#fafafa"/>
        <path id="Path_25389" data-name="Path 25389" d="M100.654,257.9a25.444,25.444,0,0,1,2.7-8.641,30.67,30.67,0,0,1-1.269,4.346,30.546,30.546,0,0,1-1.434,4.3" fill="#fafafa"/>
        <path id="Path_25390" data-name="Path 25390" d="M98.913,267.044q4.275.987,8.5,2.18a22.22,22.22,0,0,1-8.5-2.18" fill="#fafafa"/>
        <path id="Path_25391" data-name="Path 25391" d="M117.936,278.2a21.2,21.2,0,0,1-.442-10.387c.145.017-.063,2.341.066,5.2s.519,5.158.376,5.186" fill="#fafafa"/>
        <path id="Path_25392" data-name="Path 25392" d="M121.731,289.683a45.15,45.15,0,0,1,3.076-3.691c1.691-2.028,2.94-3.778,3.06-3.7a23.277,23.277,0,0,1-6.136,7.394" fill="#fafafa"/>
        <path id="Path_25393" data-name="Path 25393" d="M102.652,287.269a38.931,38.931,0,0,1,8.063,3.367,39.009,39.009,0,0,1-8.063-3.367" fill="#fafafa"/>
        <path id="Path_25394" data-name="Path 25394" d="M109.484,308.881a55.093,55.093,0,0,1-.1-10.385,55.01,55.01,0,0,1,.1,10.385" fill="#fafafa"/>
        <path id="Path_25395" data-name="Path 25395" d="M124.134,307.64a53.489,53.489,0,0,1-1.316-5.216c-.716-2.875-1.434-5.173-1.3-5.221a30.169,30.169,0,0,1,2.617,10.437" fill="#fafafa"/>
        <path id="Path_25396" data-name="Path 25396" d="M123.459,313.311a27.8,27.8,0,0,1,10.425,1.721c-.039.138-2.343-.4-5.211-.875s-5.222-.7-5.214-.846" fill="#fafafa"/>
        <path id="Path_25397" data-name="Path 25397" d="M139.66,309.673a37.4,37.4,0,0,1-5.953-6.161,37.407,37.407,0,0,1,5.953,6.162" fill="#fafafa"/>
        <path id="Path_25398" data-name="Path 25398" d="M150.152,319.883a15.089,15.089,0,0,1,2.594-7.373,34.081,34.081,0,0,1-1.319,3.68,34.4,34.4,0,0,1-1.275,3.693" fill="#fafafa"/>
        <path id="Path_25399" data-name="Path 25399" d="M133.216,325.716a52.418,52.418,0,0,1,9.272-4.115,52.283,52.283,0,0,1-9.272,4.115" fill="#fafafa"/>
        <path id="Path_25400" data-name="Path 25400" d="M162.736,324.005a25.835,25.835,0,0,1-2.242-6.752,25.861,25.861,0,0,1,2.242,6.752" fill="#fafafa"/>
        <path id="Path_25401" data-name="Path 25401" d="M143.287,327.3a29.422,29.422,0,0,1,12.114-.646c-.011.147-2.727,0-6.065.184-3.337.17-6.023.6-6.049.462" fill="#fafafa"/>
        <path id="Path_25402" data-name="Path 25402" d="M139.259,299.458a13.138,13.138,0,0,0-.3-1.388,2.214,2.214,0,0,0-.991-1.239,3.06,3.06,0,0,0-2.1-.28l-.149.026-.044-.14c-1.133-3.589-2.843-8.857-4.5-14.8-1.551-5.567-2.544-10.708-3.191-14.431-.32-1.864-.561-3.373-.711-4.422a10.521,10.521,0,0,1-.184-1.632,10.6,10.6,0,0,1,.374,1.6c.219,1.117.511,2.6.864,4.39.733,3.7,1.776,8.815,3.323,14.364,1.652,5.927,3.3,11.217,4.337,14.836l-.194-.113a3.3,3.3,0,0,1,2.3.38,2.379,2.379,0,0,1,1.026,1.407,3.493,3.493,0,0,1,.152,1.07,1.141,1.141,0,0,1-.025.373" fill="#263238"/>
        <path id="Path_25403" data-name="Path 25403" d="M118.082,312.587a3.827,3.827,0,0,1,.34-.928,21.155,21.155,0,0,1,1.224-2.4,29.4,29.4,0,0,1,12.988-11.8,21.224,21.224,0,0,1,2.5-.99,3.9,3.9,0,0,1,.956-.251c.03.085-1.3.54-3.309,1.554a32.468,32.468,0,0,0-12.842,11.671c-1.2,1.907-1.781,3.185-1.862,3.147" fill="#263238"/>
        <g id="Group_10340" data-name="Group 10340" opacity="0.2">
          <g id="Group_10339" data-name="Group 10339">
            <g id="Group_10338" data-name="Group 10338" clip-path="url(#clip-path-31)">
              <g id="Group_10337" data-name="Group 10337">
                <g id="Group_10336" data-name="Group 10336" clip-path="url(#clip-path-32)">
                  <path id="Path_25404" data-name="Path 25404" d="M135.823,296.39c-2.8.429-5.924,2.375-8.072,4.224s-4.3,3.55-6.386,5.474a4.744,4.744,0,0,1-1.562,1.075,1.746,1.746,0,0,1-1.79-.288,2.34,2.34,0,0,1-.176-2.452c1.246-3.4,4.377-5.829,7.766-7.1a33.165,33.165,0,0,1,9.955-1.8"/>
                </g>
              </g>
            </g>
          </g>
        </g>
        <path id="Path_25405" data-name="Path 25405" d="M142.356,289.51c.041-.09,1.466.7,3.978,1.328a20,20,0,0,0,18.678-4.85c1.89-1.773,2.75-3.159,2.828-3.1a4.338,4.338,0,0,1-.582.976,17.207,17.207,0,0,1-2,2.37,19.4,19.4,0,0,1-19.009,4.937,17.3,17.3,0,0,1-2.9-1.1,4.36,4.36,0,0,1-.985-.57" fill="#263238"/>
        <g id="Group_10345" data-name="Group 10345" opacity="0.2">
          <g id="Group_10344" data-name="Group 10344">
            <g id="Group_10343" data-name="Group 10343" clip-path="url(#clip-path-33)">
              <g id="Group_10342" data-name="Group 10342">
                <g id="Group_10341" data-name="Group 10341" clip-path="url(#clip-path-34)">
                  <path id="Path_25406" data-name="Path 25406" d="M167.335,283.614c-4.124,5.306-12.9,8.84-20.694,7.62,2.406,2.035,5.112,4.188,8.263,4.136a10.389,10.389,0,0,0,5.962-2.5c3.014-2.322,4.881-5.8,6.469-9.257"/>
                </g>
              </g>
            </g>
          </g>
        </g>
        <path id="Path_25407" data-name="Path 25407" d="M132.435,237.349a7.8,7.8,0,0,1-.258-2.113,36.2,36.2,0,0,1,.976-10.194,7.778,7.778,0,0,1,.654-2.026c.145.036-.645,3.178-1.015,7.136-.388,3.957-.208,7.191-.358,7.2" fill="#263238"/>
        <path id="Path_25408" data-name="Path 25408" d="M236.02,379.574s9.963,1.815,19.966,3.815,35.644,5.124,35.652-7.5c.007-11.319-19.222-12.651-27.809-11.363-9.16,1.373-19.419-.844-19.419-.844Z" fill="#467cdb"/>
        <path id="Path_25409" data-name="Path 25409" d="M267.437,379.853a42.551,42.551,0,0,1,2-8.894,42.478,42.478,0,0,1-2,8.894" fill="#263238"/>
        <path id="Path_25410" data-name="Path 25410" d="M263.939,380.021a42.692,42.692,0,0,1,1.245-9.076,42.891,42.891,0,0,1-1.245,9.076" fill="#263238"/>
        <path id="Path_25411" data-name="Path 25411" d="M260.558,378.7a32.613,32.613,0,0,1,.957-7.93,32.506,32.506,0,0,1-.957,7.93" fill="#263238"/>
        <path id="Path_25412" data-name="Path 25412" d="M255.253,377.376q.837-3.5,1.7-6.988a13.57,13.57,0,0,1-1.7,6.988" fill="#263238"/>
        <path id="Path_25413" data-name="Path 25413" d="M254.118,372.761c0,.039-.478.022-1.329.1a12.509,12.509,0,0,0-3.488.837,3.791,3.791,0,0,0-.995.568,1.3,1.3,0,0,0-.527.966c.008.054.019.109.032.163a1.483,1.483,0,0,0,1.8,1.071,4.4,4.4,0,0,0,2.379-1.758,8,8,0,0,0,.425-9.1.5.5,0,0,0-.063-.088.656.656,0,0,0-.926-.078,1.925,1.925,0,0,0-.525,1.112,6.8,6.8,0,0,0,.072,2.431,7.383,7.383,0,0,0,1.536,3.187c.547.648.933.935.905.97-.01.015-.111-.048-.3-.179a5.56,5.56,0,0,1-.749-.664,7.123,7.123,0,0,1-1.73-3.238,6.982,6.982,0,0,1-.137-2.568,2.311,2.311,0,0,1,.643-1.378,1.039,1.039,0,0,1,.853-.265,1.318,1.318,0,0,1,.763.458,8.031,8.031,0,0,1,1.129,6.537A8.173,8.173,0,0,1,252.373,375a4.765,4.765,0,0,1-2.679,1.906,1.736,1.736,0,0,1-.266.043,1.9,1.9,0,0,1-2.056-1.731,1.688,1.688,0,0,1,.694-1.25,4.037,4.037,0,0,1,1.111-.6,11.385,11.385,0,0,1,3.6-.7,4.405,4.405,0,0,1,1.34.09" fill="#263238"/>
        <path id="Path_25414" data-name="Path 25414" d="M237.04,377.911a1.223,1.223,0,0,1,.27.033l.78.145,2.991.589c2.6.515,6.36,1.267,11.03,2.116s10.243,1.836,16.478,2.659a44.463,44.463,0,0,0,9.8.462,20.931,20.931,0,0,0,5.071-.977,13.726,13.726,0,0,0,2.4-1.068,7.413,7.413,0,0,0,2.029-1.618l.021-.027.017-.014a4.829,4.829,0,0,0,.8-.968,6.2,6.2,0,0,0,.471-5.112,8.375,8.375,0,0,0-3.109-4.064,16.3,16.3,0,0,0-4.54-2.259c-.806-.228-1.585-.508-2.386-.693-.8-.162-1.587-.379-2.38-.491-6.346-1.032-12.19-.559-17.06-.6-2.441.025-4.654-.066-6.588-.212a40.8,40.8,0,0,1-4.931-.708l-1.768-.418-1.266-.409-.775-.263a1.155,1.155,0,0,1-.257-.107,1.179,1.179,0,0,1,.273.059l.787.217,1.275.363,1.768.371a43.906,43.906,0,0,0,4.913.621c1.929.117,4.13.185,6.567.14,4.857,0,10.707-.516,17.137.5.8.111,1.6.328,2.415.49.81.185,1.608.468,2.425.7a16.753,16.753,0,0,1,4.676,2.317,8.83,8.83,0,0,1,3.289,4.3,6.679,6.679,0,0,1-.521,5.524,5.178,5.178,0,0,1-.893,1.071l.038-.042A7.712,7.712,0,0,1,286.1,382.3a14.213,14.213,0,0,1-2.49,1.1,21.306,21.306,0,0,1-5.185.993,44.531,44.531,0,0,1-9.9-.5c-6.246-.85-11.818-1.868-16.48-2.767s-8.418-1.7-11.006-2.269l-2.975-.677-.768-.193a1.079,1.079,0,0,1-.26-.082" fill="#263238"/>
        <path id="Path_25415" data-name="Path 25415" d="M274.555,383.988a12,12,0,0,1-.1-2.638,57.7,57.7,0,0,1,1.689-12.605,11.907,11.907,0,0,1,.789-2.52,16.774,16.774,0,0,1-.45,2.594c-.313,1.592-.718,3.8-1.044,6.246s-.521,4.683-.636,6.3a17.06,17.06,0,0,1-.248,2.622" fill="#263238"/>
        <g id="Group_10350" data-name="Group 10350" opacity="0.4">
          <g id="Group_10349" data-name="Group 10349">
            <g id="Group_10348" data-name="Group 10348" clip-path="url(#clip-path-35)">
              <g id="Group_10347" data-name="Group 10347">
                <g id="Group_10346" data-name="Group 10346" clip-path="url(#clip-path-36)">
                  <path id="Path_25416" data-name="Path 25416" d="M245.685,363.677l-9.662,15.9,5.045.935,6.5-16.284Z"/>
                </g>
              </g>
            </g>
          </g>
        </g>
        <path id="Path_25417" data-name="Path 25417" d="M203.04,348.884l27.1-17.516-56.973,40.973s47.357,1.229,48.878,1.816c1.162.45,39.082-22.644,57-33.621a25.812,25.812,0,0,0,.537-43.675l-.328-.212a25.814,25.814,0,0,0-21.013-3.177c-27.171,7.641-94.361,26.468-95.406,26.12Z" fill="#002c54"/>
        <path id="Path_25418" data-name="Path 25418" d="M218.932,299.142s3.464,6.053,2.43,9.157-14.849,1.882-14.849,1.882l-75.9,17.6,7.59-25.53,52.438-1.712,14.006-8.78,14.283,7.388" fill="#ffbe9d"/>
        <path id="Path_25419" data-name="Path 25419" d="M120.518,320.958l-.106,24.222a35.544,35.544,0,0,0,13.9,28.35,36.276,36.276,0,0,0,47.843-3.224l.878-7.065-7.064-23.179Z" fill="#002c54"/>
        <path id="Path_25420" data-name="Path 25420" d="M218.013,340.208c-.081-.108,7.981-6.257,18.008-13.738s18.216-13.454,18.3-13.344-7.993,6.262-18.016,13.739-18.219,13.453-18.3,13.345" fill="#455a64"/>
        <path id="Path_25421" data-name="Path 25421" d="M205.61,296.386a55.9,55.9,0,0,1,7.136,2.029,55.965,55.965,0,0,1,6.987,2.5,56.124,56.124,0,0,1-7.137-2.029,56.165,56.165,0,0,1-6.986-2.5" fill="#eb996e"/>
        <path id="Path_25422" data-name="Path 25422" d="M204.542,300.739a10.713,10.713,0,0,1,2.479.112,51.506,51.506,0,0,1,11.648,2.678,10.749,10.749,0,0,1,2.28.981,14.7,14.7,0,0,1-2.387-.65c-1.46-.435-3.484-1.011-5.748-1.529s-4.339-.89-5.839-1.135a14.7,14.7,0,0,1-2.433-.457" fill="#eb996e"/>
        <path id="Path_25423" data-name="Path 25423" d="M205.738,304.733a66.636,66.636,0,0,1,7.965,1.329,66.219,66.219,0,0,1,7.868,1.812,66.636,66.636,0,0,1-7.965-1.329,66.028,66.028,0,0,1-7.868-1.812" fill="#eb996e"/>
        <path id="Path_25424" data-name="Path 25424" d="M224.265,264.9a1.256,1.256,0,0,1,1.26-.888l64.108,3a1.277,1.277,0,0,1,.386.08,1.256,1.256,0,0,1,.728,1.621l-17.258,45.216a1.257,1.257,0,0,1-1.15.808l-98.134,1.846h-.023a1.256,1.256,0,0,1-1.256-1.256v-2.241a1.254,1.254,0,0,1,1.161-1.252l35.9-2.7a1.255,1.255,0,0,0,1.106-.885L224.268,264.9" fill="#455a64"/>
        <path id="Path_25425" data-name="Path 25425" d="M251.921,283.573a3.248,3.248,0,0,0-3.9,1.417,2.991,2.991,0,0,0,.981,3.623,3.225,3.225,0,0,0,3.587-.135,2.967,2.967,0,0,0,1.268-2.7,3.1,3.1,0,0,0-1.941-2.2" fill="#e0e0e0"/>
        <path id="Path_25426" data-name="Path 25426" d="M171.983,359.835l-50.632-16.27-1.219-14.585a30.651,30.651,0,0,1,49.985-26.249l76.277,59.783-10.373,17.064Z" fill="#002c54"/>
        <path id="Path_25427" data-name="Path 25427" d="M138.2,339.063a1.14,1.14,0,0,1,.233.149l.654.476,2.484,1.868c.54.409,1.141.856,1.786,1.356s1.411.959,2.2,1.5l2.548,1.7c.453.3.91.623,1.394.923l1.519.9c2.078,1.214,4.318,2.609,6.856,3.871,1.262.649,2.544,1.357,3.9,2.017l4.212,1.975c5.8,2.618,12.294,5.26,19.256,7.628,13.907,4.792,26.772,8.3,35.978,11.185,2.307.7,4.384,1.375,6.207,1.965s3.391,1.1,4.659,1.567l2.925,1.047.756.284a1.266,1.266,0,0,1,.252.112,1.121,1.121,0,0,1-.269-.064l-.772-.238-2.953-.96c-1.275-.434-2.852-.922-4.681-1.486-1.824-.583-3.911-1.219-6.225-1.9-9.224-2.8-22.1-6.253-36.037-11.053-6.972-2.371-13.476-5.033-19.284-7.68l-4.214-2c-1.36-.672-2.643-1.389-3.9-2.047-2.537-1.281-4.774-2.7-6.846-3.936l-1.514-.912c-.483-.31-.939-.641-1.39-.941l-2.533-1.737c-.786-.552-1.542-1.026-2.186-1.537s-1.23-.971-1.763-1.391l-2.429-1.94c-.256-.214-.462-.38-.623-.513a1.12,1.12,0,0,1-.2-.189" fill="#455a64"/>
        <path id="Path_25428" data-name="Path 25428" d="M136.352,347.036a28.97,28.97,0,0,1,3.072.958c1.886.611,4.514,1.377,7.47,2.012s5.668,1.014,7.638,1.234a28.827,28.827,0,0,1,3.194.389,2.976,2.976,0,0,1-.868.051c-.558.006-1.364-.026-2.358-.093a55.711,55.711,0,0,1-15.19-3.264c-.934-.348-1.681-.65-2.189-.884a2.945,2.945,0,0,1-.769-.4" fill="#455a64"/>
        <path id="Path_25429" data-name="Path 25429" d="M173.169,305.6c.083-.105,16.536,12.541,36.76,28.261s36.546,28.546,36.463,28.652-16.547-12.55-36.764-28.264-36.543-28.542-36.459-28.65" fill="#455a64"/>
        <path id="Path_25430" data-name="Path 25430" d="M177.58,369.039a6.867,6.867,0,0,0-2.777,2.781c-2.2,3.988-.05,8.923,4.134,10.715,6.789,2.9,15.99,3.83,22.683,3.131a35.477,35.477,0,0,0,21.438-10.345c3.212-3.272,5.922-8.339,2.328-12.23a8.025,8.025,0,0,0-5.415-2.448,26.967,26.967,0,0,0-19.717,7.065c-1.306,1.206-2.579,2.593-4.29,3.075-2.367.665-4.789-.579-7.119-1.364-3.5-1.182-7.609-2.332-11.267-.381" fill="#467cdb"/>
        <g id="Group_10355" data-name="Group 10355" opacity="0.4">
          <g id="Group_10354" data-name="Group 10354">
            <g id="Group_10353" data-name="Group 10353" clip-path="url(#clip-path-37)">
              <g id="Group_10352" data-name="Group 10352">
                <g id="Group_10351" data-name="Group 10351" clip-path="url(#clip-path-37)">
                  <path id="Path_25431" data-name="Path 25431" d="M177.585,372.152a6.875,6.875,0,0,0-2.777,2.782,7.046,7.046,0,0,0-.692,1.846,8.271,8.271,0,0,0,4.827,5.753c6.789,2.9,15.99,3.831,22.682,3.132a35.487,35.487,0,0,0,21.442-10.344,14.227,14.227,0,0,0,3.836-6.386,6.238,6.238,0,0,0-1.509-2.728,8.031,8.031,0,0,0-5.415-2.449,26.975,26.975,0,0,0-19.717,7.065c-1.306,1.206-2.579,2.594-4.29,3.075-2.368.666-4.789-.579-7.119-1.364-3.5-1.181-7.609-2.331-11.268-.381"/>
                </g>
              </g>
            </g>
          </g>
        </g>
        <path id="Path_25432" data-name="Path 25432" d="M174.135,376.8a2.34,2.34,0,0,1,.059-.619,5.1,5.1,0,0,1,.678-1.653,7.871,7.871,0,0,1,5.438-3.443c2.84-.373,6.042.767,9.523,1.678,1.749.458,3.586,1.11,5.5.857a7.066,7.066,0,0,0,2.734-.954,17.949,17.949,0,0,0,2.441-1.845c.791-.681,1.562-1.382,2.376-2.02a21.862,21.862,0,0,1,2.556-1.664,29.241,29.241,0,0,1,5.252-2.318,26.065,26.065,0,0,1,5.072-1.131,15.805,15.805,0,0,1,4.535.035,9.773,9.773,0,0,1,3.512,1.3,8.618,8.618,0,0,1,2.1,1.89,7.6,7.6,0,0,1,1.2,2.074,21.444,21.444,0,0,0-1.351-1.952,8.8,8.8,0,0,0-2.1-1.778,9.658,9.658,0,0,0-3.426-1.2,15.641,15.641,0,0,0-4.428.026,27.333,27.333,0,0,0-14.985,7.1,18.194,18.194,0,0,1-2.512,1.89,7.509,7.509,0,0,1-2.924,1.014c-2.067.257-3.955-.442-5.683-.9-3.5-.947-6.644-2.089-9.361-1.77a7.815,7.815,0,0,0-3.364,1.287,7.117,7.117,0,0,0-1.957,1.914,6.347,6.347,0,0,0-.9,2.168" fill="#263238"/>
        <path id="Path_25433" data-name="Path 25433" d="M174.135,376.8a2.34,2.34,0,0,1,.059-.619,5.1,5.1,0,0,1,.678-1.653,7.871,7.871,0,0,1,5.438-3.443c2.84-.373,6.042.767,9.523,1.678,1.749.458,3.586,1.11,5.5.857a7.066,7.066,0,0,0,2.734-.954,17.949,17.949,0,0,0,2.441-1.845c.791-.681,1.562-1.382,2.376-2.02a21.862,21.862,0,0,1,2.556-1.664,29.241,29.241,0,0,1,5.252-2.318,26.065,26.065,0,0,1,5.072-1.131,15.805,15.805,0,0,1,4.535.035,9.773,9.773,0,0,1,3.512,1.3,8.618,8.618,0,0,1,2.1,1.89,7.6,7.6,0,0,1,1.2,2.074,21.444,21.444,0,0,0-1.351-1.952,8.8,8.8,0,0,0-2.1-1.778,9.658,9.658,0,0,0-3.426-1.2,15.641,15.641,0,0,0-4.428.026,27.333,27.333,0,0,0-14.985,7.1,18.194,18.194,0,0,1-2.512,1.89,7.509,7.509,0,0,1-2.924,1.014c-2.067.257-3.955-.442-5.683-.9-3.5-.947-6.644-2.089-9.361-1.77a7.815,7.815,0,0,0-3.364,1.287,7.117,7.117,0,0,0-1.957,1.914,6.347,6.347,0,0,0-.9,2.168" fill="#263238"/>
        <path id="Path_25434" data-name="Path 25434" d="M219.491,375.9a11.984,11.984,0,0,1-2.045-1c-1.238-.649-2.955-1.545-4.885-2.444s-3.708-1.661-5-2.2a11.862,11.862,0,0,1-2.07-.939,9.355,9.355,0,0,1,2.2.615,54.029,54.029,0,0,1,9.934,4.669,9.246,9.246,0,0,1,1.873,1.3" fill="#263238"/>
        <path id="Path_25435" data-name="Path 25435" d="M218.237,379.561a66.414,66.414,0,0,1-7.36-3.285,65.943,65.943,0,0,1-7.146-3.729,66.527,66.527,0,0,1,7.36,3.286,66.372,66.372,0,0,1,7.146,3.728" fill="#263238"/>
        <path id="Path_25436" data-name="Path 25436" d="M203.08,381.147c-.072-.11,3.707-2.622,8.445-5.61s8.635-5.312,8.708-5.2-3.708,2.623-8.445,5.611-8.635,5.315-8.708,5.2" fill="#263238"/>
        <path id="Path_25437" data-name="Path 25437" d="M200.883,377.348a9.935,9.935,0,0,1,1.7-1.552c1.1-.9,2.653-2.092,4.432-3.326s3.443-2.273,4.669-2.983a9.92,9.92,0,0,1,2.049-1.046,11.469,11.469,0,0,1-1.863,1.34c-1.176.784-2.8,1.862-4.576,3.093s-3.353,2.373-4.5,3.2a11.435,11.435,0,0,1-1.91,1.276" fill="#263238"/>
      </g>
    </g>
  </g>
</svg>
